<?xml version="1.0" encoding="UTF-8"?> <svg xmlns="http://www.w3.org/2000/svg" xmlns:xlink="http://www.w3.org/1999/xlink" width="244" height="244" viewBox="0 0 244 244"><defs><filter id="a" x="0" y="0" width="244" height="244"><feOffset dy="13"></feOffset><feGaussianBlur stdDeviation="8" result="b"></feGaussianBlur><feFlood flood-opacity="0.082"></feFlood><feComposite operator="in" in2="b"></feComposite><feComposite in="SourceGraphic"></feComposite></filter><clipPath id="c"><circle cx="73.568" cy="73.568" r="73.568" fill="none"></circle></clipPath></defs><g transform="translate(24 11)"><g transform="matrix(1, 0, 0, 1, -24, -11)" filter="url(#a)"><g transform="translate(24 11)" fill="#fafafa" stroke="#e5e5e5" stroke-width="1"><circle cx="98" cy="98" r="98" stroke="none"></circle><circle cx="98" cy="98" r="97.5" fill="none"></circle></g></g><g transform="translate(25 25)"><g clip-path="url(#c)"><g transform="translate(-66.372 -22.477)"><rect width="209.488" height="147.349" transform="translate(34.14)" fill="#71709a"></rect><path d="M14.751,425.262s136.093-62.139,206.791-16.744-57.675,64.744-61.024,66.6-129.86-27.907-129.86-29.768S14.751,425.262,14.751,425.262Z" transform="translate(17.993 -263.774)" fill="#2f6c55"></path><path d="M-17.993,442.378S118.1,380.239,188.8,425.634s-57.674,64.744-61.023,66.605S-2.086,464.332-2.086,462.471-17.993,442.378-17.993,442.378Z" transform="translate(17.993 -263.774)" fill="#458269"></path><path d="M258.78,348.207c-4.184.073-9.219.249-13.4.328-7.9.139-15.825.279-23.7-.223a53.343,53.343,0,0,1-12.958-2.1c-2.468-.8-4.784-1.891-7.324-2.539-4.465-1.141-9.285-.836-13.975-1.021a129.37,129.37,0,0,1-21.324-3.221c-10.8-2.256-37.4-5.633-38.083-14.183a3.658,3.658,0,0,1,.936-2.817,6.209,6.209,0,0,1,2.275-1.335c12.534-5,27.481-3.264,41.5-4.138a35.593,35.593,0,0,0,10.465-1.885c3.776-1.451,7.069-4.023,11.265-4.23,2.95-.144,6.857.586,8.125-1.5a4.491,4.491,0,0,0,.389-1.671c.407-2.438,5.636-4.017,8.44-4.844,9.786,3.25,14.741,8,21.416,13.261a15.4,15.4,0,0,0-2.239.351c-2.688.644-4.94,2.14-7.62,2.8a26.3,26.3,0,0,1-6.421.488l-23.44-.144a14.725,14.725,0,0,0-4.367.408,23.52,23.52,0,0,0-3.665,1.814c-4.02,2.025-9.093,2.058-13.787,2.766-1.493.224-3.133.622-3.844,1.671-1.189,1.748,1.061,3.748,3.329,4.621,9.108,3.5,20.322.1,30.015,2.453,2.593.628,5,1.652,7.522,2.427,8.284,2.544,17.5,2.32,26.354,1.591,5.513-.454,11.041-1.089,16.565-1.331,2.591,3.732,4.816,7.4,6.779,10.824Z" transform="translate(17.993 -263.774)" fill="#fff" opacity="0.37" style="isolation:isolate"></path><path d="M30.85,310.509c3.419-.307,6.881-.011,10.31-.264a31.726,31.726,0,0,0,10.627-2.681,14.349,14.349,0,0,1,2.823-1.091,16.451,16.451,0,0,1,4.106-.065,22.9,22.9,0,0,0,7.9-1.094c.853-.277,1.805-.735,1.946-1.558.179-1.05-1.062-1.8-2.15-2.161s-2.39-.8-2.624-1.845c-.1-.468.036-1-.239-1.4a1.773,1.773,0,0,0-.855-.556,34.524,34.524,0,0,0-11.427-2.139c-.526-.02-1.064-.016-1.607,0a128.761,128.761,0,0,1,19.894-6.019c.442,0,.883-.011,1.325-.024,5.2-.144,10.793-.613,15.234,1.884a2.656,2.656,0,0,1,1.347,1.335c.468,1.473-1.576,2.479-3.194,2.861-.249,1.021,1.211,1.6,2.331,1.784a68.962,68.962,0,0,1,10.626,2.613c2.448.812,5.165,2.115,5.649,4.463a4.625,4.625,0,0,1-2.054,4.425,11.936,11.936,0,0,1-5.037,1.879c-6.117,1.091-12.441.342-18.644.887a5.02,5.02,0,0,0-2.364.631c-1.065.709-1.351,2.039-2.1,3.036-1.479,1.979-4.444,2.341-7.05,2.472q-8.708.437-17.427.131a15.755,15.755,0,0,0-4.367.238,24.142,24.142,0,0,0-4.166,1.815,32.833,32.833,0,0,1-9.03,2.32,18.848,18.848,0,0,1-.054-11.072C30.658,311.037,30.75,310.769,30.85,310.509Z" transform="translate(17.993 -263.774)" fill="#fff" opacity="0.37" style="isolation:isolate"></path><path d="M78.978,350.643a6.575,6.575,0,0,0-7.882-4.934q-.09.021-.18.045a9.679,9.679,0,0,0-11.638-5.142A11.924,11.924,0,0,0,37.86,342.7,8.183,8.183,0,0,0,25.7,349.845c0,.267.015.532.04.794Z" transform="translate(17.993 -263.774)" fill="#fff"></path><g transform="translate(85.321 53.268)"><g transform="translate(66.082 54.86)"><ellipse cx="12.26" cy="3.088" rx="12.26" ry="3.088" fill="#2d2c47"></ellipse></g><g transform="translate(99.462 87.826)"><path d="M171.472,414.676l4.286-.85c-.755-3.811-5.38-8.442-5.9-8.958l-3.064,3.116C168.4,409.571,171.1,412.792,171.472,414.676Z" transform="translate(-166.79 -404.868)" fill="#f3ebf4"></path></g><g transform="translate(67.265 92.56)"><path d="M139.281,420.321c1.312-3.657-.273-10.007-.458-10.719l-4.23,1.1h0c.567,2.19,1.223,6.337.575,8.145Z" transform="translate(-134.593 -409.602)" fill="#f3ebf4"></path></g><g transform="translate(58.91 99.485)"><g transform="translate(0 3.3)"><path d="M126.4,421.326h-.16v.408a20.283,20.283,0,0,0,4.532.707c1.735-.054,3.771-.9,5.421-.9v.7s3.964.1,4.114-.246a2.647,2.647,0,0,0,0-1.115l-.343.043-6.771-1.092Z" transform="translate(-126.238 -419.827)" fill="#2a2423"></path></g><g transform="translate(0.104)"><path d="M126.4,421.326a.717.717,0,0,1,.579-1.007c.9-.171,3.214-.325,4.028-.816s3.729-2.976,3.729-2.976a3.028,3.028,0,0,0,2.743,2.035c1.993-.085,2.485-.943,2.485-.943s1.393,2.508,0,3.3c0,0-4.414.022-5.185.407a11.471,11.471,0,0,1-3.686.665A18.1,18.1,0,0,1,126.4,421.326Z" transform="translate(-126.342 -416.527)" fill="#23222c"></path></g><g transform="translate(1.102 4.121)"><path d="M127.34,420.721c0,.04.048.073.108.073s.108-.033.108-.073-.048-.073-.108-.073S127.34,420.68,127.34,420.721Z" transform="translate(-127.34 -420.648)" fill="#f3ebf4"></path></g><g transform="translate(1.95 3.987)"><path d="M128.188,420.721c0,.114.137.207.306.207s.306-.093.306-.207-.137-.207-.306-.207S128.188,420.607,128.188,420.721Z" transform="translate(-128.188 -420.514)" fill="#f3ebf4"></path></g></g><g transform="translate(98.159 93.551)"><g transform="translate(0.219 2.507)"><path d="M165.84,419.709l-.134.09.228.337s3.015.616,4.423-.4,2.621-2.858,3.988-3.782l.39.577s3.338-2.14,3.271-2.508a2.646,2.646,0,0,0-.624-.923l-.26.227-6.222,2.887Z" transform="translate(-165.706 -413.1)" fill="#2a2423"></path></g><path d="M165.84,419.709a.716.716,0,0,1-.085-1.158c.65-.646,2.753-.519,3.153-1.381s1.422-4.554,1.422-4.554a3.028,3.028,0,0,0,3.412.15c1.6-1.187,1.532-2.173,1.532-2.173s2.558,1.3,1.848,2.734c0,0-3.645,2.49-4.069,3.241a11.466,11.466,0,0,1-2.681,2.615A5.483,5.483,0,0,1,165.84,419.709Z" transform="translate(-165.487 -410.593)" fill="#23222c"></path><g transform="translate(0.555 7.69)"><path d="M166.048,418.926c.042.063.283-.026.537-.2s.426-.362.384-.425-.283.026-.538.2S166.005,418.863,166.048,418.926Z" transform="translate(-166.041 -418.283)" fill="#f3ebf4"></path></g></g><g transform="translate(65.658 52.217)"><path d="M137.362,416.549c2.005,0,3.493,1.467,3.793-.576l6.172-42.008a4.109,4.109,0,0,0-8.13-1.2l-6.172,42.009c-.33,2.245,1.49,1.4,3.735,1.726A4.238,4.238,0,0,0,137.362,416.549Z" transform="translate(-132.986 -369.259)" fill="#49443f"></path></g><g transform="translate(65.658 52.217)"><path d="M133.025,414.779,139.2,372.77a4.109,4.109,0,0,1,4.662-3.467,4.214,4.214,0,0,1,.817.206l-6.16,46.59a3.809,3.809,0,0,0-.038.582,5.289,5.289,0,0,0-1.116-.132,4.238,4.238,0,0,1-.6-.044C134.515,416.175,132.7,417.024,133.025,414.779Z" transform="translate(-132.986 -369.259)" fill="#514c46"></path></g><g transform="translate(77.348 50.557)"><path d="M144.712,372.25a4.072,4.072,0,0,0,.179.765l7.661,22.857a4.1,4.1,0,0,0,.878,1.483l15.179,16.418.056.059c.32.328.552.41.77.322.316-.128.6-.615,1.073-1.227.155-.2.331-.421.536-.643a8.262,8.262,0,0,1,1.923-1.781c1.812-1.219,1.841-2.081,1.345-2.822l-14.25-15.256-7.38-22.022a4.11,4.11,0,0,0-5.2-2.59,4.01,4.01,0,0,0-.621.268c-.046.024-.089.049-.134.075a.14.14,0,0,0-.024.013c-.044.025-.085.052-.128.079s-.091.058-.137.09-.088.063-.131.1c-.086.067-.17.134-.249.2-.042.037-.08.072-.119.111s-.065.063-.1.1c-.048.049-.094.1-.138.149-.033.036-.064.072-.092.109s-.057.07-.084.106c-.041.052-.081.107-.119.161-.027.038-.054.078-.078.118-.062.094-.117.191-.171.29-.028.053-.054.1-.08.159s-.049.1-.07.156-.05.119-.073.179-.033.093-.049.14a3.7,3.7,0,0,0-.1.37c-.014.058-.027.116-.038.177s-.02.116-.029.176-.016.127-.021.192c-.006.048-.009.1-.013.147,0,.075-.006.15-.006.226,0,.053,0,.108,0,.162s.006.114.011.172c0,.033.005.066.009.1S144.707,372.21,144.712,372.25Z" transform="translate(-144.676 -367.599)" fill="#49443f"></path><g transform="translate(0 0.482)"><path d="M144.712,372.25a4.072,4.072,0,0,0,.179.765l7.661,22.857a4.1,4.1,0,0,0,.878,1.483l15.179,16.418.056.059a.817.817,0,0,0,.77.322c.316-.128.6-.615,1.073-1.227l-14.645-16.774a4.54,4.54,0,0,1-.9-1.586l-7.929-24.38a4.615,4.615,0,0,1-.178-2.106c-.046.024-.089.049-.134.075a.14.14,0,0,0-.024.013c-.044.025-.085.052-.128.079s-.091.058-.137.09-.088.063-.131.1c-.086.067-.17.134-.249.2-.042.037-.08.072-.119.111s-.065.063-.1.1c-.048.049-.094.1-.138.149-.033.036-.064.072-.092.109s-.057.07-.084.106c-.041.052-.081.107-.119.161-.027.038-.054.078-.078.118-.062.094-.117.191-.171.29-.028.053-.054.1-.08.159s-.049.1-.07.156-.05.119-.073.179-.033.093-.049.14a3.7,3.7,0,0,0-.1.37c-.014.058-.027.116-.038.177s-.02.116-.029.176-.016.127-.021.192c-.006.048-.009.1-.013.147,0,.075-.006.15-.006.226,0,.053,0,.108,0,.162s.006.114.011.172c0,.033.005.066.009.1S144.707,372.212,144.712,372.25Z" transform="translate(-144.676 -368.081)" fill="#514c46"></path></g></g><g transform="translate(73.412 46.372)"><ellipse cx="8.674" cy="9.509" rx="8.674" ry="9.509" fill="#49443f"></ellipse></g><g transform="translate(73.412 46.372)"><path d="M142.872,372.923c0-4.856,3.321-8.859,7.608-9.435a8,8,0,0,0-1.066-.074c-4.791,0-8.674,4.257-8.674,9.509s3.883,9.509,8.674,9.509a8,8,0,0,0,1.066-.074C146.193,381.781,142.872,377.778,142.872,372.923Z" transform="translate(-140.74 -363.414)" fill="#514c46"></path></g><g transform="translate(44.079 2.16)"><path d="M137.295,344.645a2.913,2.913,0,0,0,.579-5.768L122.3,335.7l-5.235-14.57a2.913,2.913,0,0,0-5.483,1.97l5.789,16.112a2.915,2.915,0,0,0,2.159,1.87l17.183,3.5A2.926,2.926,0,0,0,137.295,344.645Z" transform="translate(-111.407 -319.202)" fill="#f88f5e"></path></g><g transform="translate(44.079 2.16)"><path d="M137.295,344.645a2.913,2.913,0,0,0,.579-5.768L122.3,335.7l-5.235-14.57a2.913,2.913,0,0,0-5.483,1.97l5.789,16.112a2.915,2.915,0,0,0,2.159,1.87l17.183,3.5A2.926,2.926,0,0,0,137.295,344.645Z" transform="translate(-111.407 -319.202)" fill="#f57942"></path></g><g transform="translate(45.479 2.16)"><path d="M137.27,341.523l-14.615-3.045a5.459,5.459,0,0,1-4.037-3.533L113.715,321a3.362,3.362,0,0,0-.908-1.376,2.861,2.861,0,0,1,.529-.252,2.913,2.913,0,0,1,3.726,1.756L122.3,335.7l15.577,3.177a2.914,2.914,0,0,1,1.755,4.594A3.308,3.308,0,0,0,137.27,341.523Z" transform="translate(-112.807 -319.202)" fill="#f88f5e"></path></g><g transform="translate(47.119 12.45)"><path d="M140.146,342.313c-.011.057-.025.114-.041.17s-.024.087-.036.129l-.013.036c-.014.045-.031.09-.048.135a2.786,2.786,0,0,1-.127.284l-.009.017c-.022.044-.046.086-.071.126s-.053.09-.083.134-.056.082-.085.122l0,.005a2.91,2.91,0,0,1-2.333,1.174,3.007,3.007,0,0,1-.585-.059l-17.183-3.5a2.912,2.912,0,0,1-2.159-1.869l-.983-2.738L116,335.407l-.8-2.227-.754-2.1,2.559-.723,3.06-.867,1.184,3.295,0,0,.367,1.026.384,1.069.294.816,15.577,3.176A2.914,2.914,0,0,1,140.146,342.313Z" transform="translate(-114.447 -329.492)" fill="#535082"></path></g><g transform="translate(47.119 12.45)"><path d="M137.874,338.876,122.3,335.7l-.294-.816-.384-1.069-.367-1.026,0,0-1.184-3.295-3.06.867-2.559.723.1.276,1.385-.392,3.06-.866,1.184,3.295h0l.367,1.027.384,1.068.293.817,15.578,3.176a2.913,2.913,0,0,1,2.272,3.437c-.011.057-.025.113-.041.169s-.024.087-.036.129l-.013.037c-.014.045-.031.089-.048.134-.038.1-.08.192-.127.285l-.009.017c-.022.043-.046.085-.071.126s-.054.09-.083.133-.056.083-.085.122l-.005.006a2.858,2.858,0,0,1-.4.436,2.915,2.915,0,0,0,1.476-1.044l0-.005c.029-.04.057-.08.085-.122s.056-.087.083-.134.049-.082.071-.126l.009-.017a2.786,2.786,0,0,0,.127-.284c.017-.045.034-.09.048-.135l.013-.036c.012-.042.025-.086.036-.129s.03-.113.041-.17A2.914,2.914,0,0,0,137.874,338.876Z" transform="translate(-114.447 -329.492)" fill="#6563a0"></path></g><g transform="translate(81.671 17.111)"><path d="M172.67,371.063a2.914,2.914,0,0,0,2.42-4.531l-20.755-31.084a2.913,2.913,0,1,0-4.845,3.236l20.755,31.083A2.91,2.91,0,0,0,172.67,371.063Z" transform="translate(-148.999 -334.152)" fill="#f88f5e"></path></g><g transform="translate(81.671 17.111)"><path d="M172.67,371.063a2.914,2.914,0,0,0,2.42-4.531l-20.755-31.084a2.913,2.913,0,1,0-4.845,3.236l20.755,31.083A2.91,2.91,0,0,0,172.67,371.063Z" transform="translate(-148.999 -334.152)" fill="#f88f5e"></path></g><g transform="translate(81.671 17.318)"><path d="M150.295,334.643a2.959,2.959,0,0,1,.539-.283,3.606,3.606,0,0,0,.238.422l23.73,35.346a2.908,2.908,0,0,1-4.557-.361L149.49,338.684A2.913,2.913,0,0,1,150.295,334.643Z" transform="translate(-148.999 -334.36)" fill="#f57942"></path></g><g transform="translate(59.996)"><g transform="translate(2.425 0.189)"><path d="M155.7,339.119l-.571-1.578a4.6,4.6,0,0,0-4.983-2.973,4.458,4.458,0,0,0-.892.222l-1.454.527c-.03.011-.06.021-.091.03l-1.307.385a1.581,1.581,0,0,1-1.932-.967c-1.18-3.2.21-8.428.21-8.428a7.228,7.228,0,0,0-5.111-8.853c-3.856-1.033-8.123,1.186-8.853,5.111a12.457,12.457,0,0,0,.194,5.544c.209,1.369-.829,2.618-1.13,3.977-.165.752.388.932.915.944a1.661,1.661,0,0,1,1.192.52c.441.479,1.425,1.1,3.606,1.3a4.984,4.984,0,0,1,3.029,1.557,1.593,1.593,0,0,1-.041,2.275l-.011.01a4.6,4.6,0,0,0-1.118,4.849l.571,1.579a4.482,4.482,0,0,0,.435.887A4.605,4.605,0,0,0,143.8,347.9l9.153-2.911a4.524,4.524,0,0,0,.924-.459A4.608,4.608,0,0,0,155.7,339.119Z" transform="translate(-129.749 -317.231)" fill="#f88f5e"></path></g><path d="M127.324,321.012l2.019,1.05a7.626,7.626,0,0,0,1.342.7,7.471,7.471,0,0,0,6.509-.2s3.317,7.279.768,8.513-2.589,1.861-6.43,1.887a7.338,7.338,0,0,0,.034,1,6.653,6.653,0,0,0,.137.871c.257,1.155.89,2.433,2.422,2.519a19.448,19.448,0,0,0,4.909-.357c1.963-.433,3.635-1.285,3.743-2.839.2-2.893-4.013-8.872-1.621-9.449a1.768,1.768,0,0,1,2.438,1.866c-.016.255-1.018,2.626.45,3.681a2.934,2.934,0,0,0,1.5.485s2.752-9.554-2.45-12.32-9.131-.977-12.984,1.713A2.459,2.459,0,0,1,127.324,321.012Z" transform="translate(-127.324 -317.042)" fill="#d3c8dd"></path><g transform="translate(6.88 0.788)"><path d="M134.205,319.429c-.049,1.006,2.057,1.927,4.705,2.057s4.835-.579,4.885-1.584-2.057-1.926-4.705-2.057S134.255,318.424,134.205,319.429Z" transform="translate(-134.204 -317.83)" fill="#e0d5ea"></path></g><g transform="translate(8.015 0.649)"><ellipse cx="1.149" cy="3.027" rx="1.149" ry="3.027" transform="translate(0 2.296) rotate(-87.179)" fill="#ebdfee"></ellipse></g></g><g transform="translate(65.277 17.631)"><path d="M135.648,350.437a11.492,11.492,0,0,0,1.649-3.673c.786-3.031-.249-6.381-.521-7.735a4.518,4.518,0,0,1,1.631-1.024l.57-.206a5.924,5.924,0,0,0,4.675,1.171c2.113-.5,3.58-2.011,3.376-3.43l.006-.009,1.754-.635a4.4,4.4,0,0,1,.891-.223,64.541,64.541,0,0,0,3.729,9.967c.117.216.233.418.35.6,1.94,3.1,4.866,6.69,6.413,14.474a15.594,15.594,0,0,1,.37,3.039c0,7.3-6.241,13.217-13.941,13.217s-13.941-5.917-13.941-13.217c0-.382.018-.761.051-1.135A16.362,16.362,0,0,1,135.648,350.437Z" transform="translate(-132.605 -334.673)" fill="#f3ebf4"></path></g><g transform="translate(64.072 17.158)"><g transform="translate(15.07)"><path d="M155.69,377.328q-1.3.417-2.628.749c-8.473-18.693-6.713-36.823-5.766-42.808l2.791-1.069,5.25,10.954a47.485,47.485,0,0,1,5.457,15.188h0a11.478,11.478,0,0,1,0,3.982l-.249,12-1.088.149A22.247,22.247,0,0,0,155.69,377.328Z" transform="translate(-146.47 -334.2)" fill="#3e3b60"></path></g><g transform="translate(0 3.805)"><path d="M133.835,350.263l2.9-11.62,1.672-.638c1.589,6.161.034,27.508-1.287,41.061q-1.11-.138-2.215-.331l-3.505-.617.815-18.213A40.227,40.227,0,0,1,133.835,350.263Z" transform="translate(-131.4 -338.005)" fill="#514d7d"></path></g><g transform="translate(16.905)"><path d="M152.214,348.913c-1.243-8.114-2.507-12.137-3.909-14.031l1.782-.682,5.25,10.954a47.485,47.485,0,0,1,5.457,15.188h0a11.478,11.478,0,0,1,0,3.982l-.249,12-1.088.149a22.247,22.247,0,0,0-3.763.859q-.6.19-1.2.362A197.5,197.5,0,0,0,152.214,348.913Z" transform="translate(-148.305 -334.2)" fill="#3e3b60"></path></g><g transform="translate(15.07 0.682)"><path d="M147.3,335.269l1.009-.387c1.4,1.894,2.666,5.917,3.909,14.031a197.5,197.5,0,0,1,2.279,28.777q-.712.205-1.431.387C144.589,359.384,146.349,341.254,147.3,335.269Z" transform="translate(-146.47 -334.882)" fill="#514d7d"></path></g></g><g transform="translate(0 3.873)"><g transform="translate(28.105 33.367)"><path d="M110.89,374.24l-.014,0-.052-.005c-.036,0-.075-.01-.118-.017a2.538,2.538,0,0,1-.3-.065c-.055-.016-.114-.035-.174-.057l-.092-.035-.069-.03-.1-.049c-.075-.037-.161-.082-.256-.136l-.186-.118-.106-.07-.056-.037-.044-.032-.187-.14-.1-.077c-.036-.028-.071-.054-.1-.079l-.412-.342-.435-.391c-.16-.14-.3-.285-.469-.44s-.335-.318-.5-.488l-.529-.53-.548-.57c-.38-.391-.762-.806-1.16-1.236s-.8-.878-1.208-1.332-.816-.919-1.223-1.384-.816-.93-1.208-1.391-.783-.914-1.159-1.353l-2.026-2.413L96.1,359.055a2.916,2.916,0,0,1,4.5-3.714c.045.054.087.11.128.167l.016.023L102.489,358l1.809,2.515,1.032,1.4c.35.481.711.962,1.073,1.441s.722.964,1.084,1.427.712.93,1.061,1.362.682.861,1.005,1.246l.469.567.441.514c.141.168.277.317.406.459s.252.286.364.4l.315.329.25.243.164.15.016.015.005,0,.007.008.012.017a.586.586,0,0,0-.089-.046l-.038-.014-.053-.023-.077-.03c-.051-.019-.1-.034-.147-.047a1.845,1.845,0,0,0-.25-.049c-.036-.005-.069-.008-.1-.01l-.041,0h0l.014,0,.273.049a2.177,2.177,0,0,1-.609,4.308Z" transform="translate(-95.433 -354.282)" fill="#f57942"></path></g><g transform="translate(28.774 33.367)"><g transform="translate(13.772 19.398)"><path d="M110.594,373.822c-.068-.024-.134-.044-.2-.061a2.574,2.574,0,0,0-.336-.065c-.048-.006-.092-.01-.133-.012l-.054,0h0l.019,0,.366.064a2.994,2.994,0,0,1,.447.118l-.014-.005Z" transform="translate(-109.874 -373.68)" fill="#f88f5e"></path></g><path d="M111.99,370.084l-.007-.008-.005,0-.016-.015-.164-.15-.25-.243-.315-.329c-.112-.113-.236-.26-.364-.4s-.265-.291-.406-.459l-.441-.514-.469-.567c-.323-.385-.658-.809-1.005-1.246s-.7-.9-1.061-1.362-.722-.946-1.084-1.427-.723-.96-1.073-1.441l-1.032-1.4L102.489,358l-1.749-2.471-.016-.023c-.041-.057-.083-.113-.128-.167a2.908,2.908,0,0,0-4.494,0l2.059,2.827,2.43,3.285,1.387,1.834c.471.628.955,1.256,1.442,1.882s.969,1.259,1.455,1.864.957,1.214,1.425,1.778.916,1.124,1.35,1.628l.63.741.592.671c.19.219.372.413.545.6s.339.374.489.521l.424.431.334.316.221.2.021.02.006,0,.011.01a3.026,3.026,0,0,1,.5.277,2.173,2.173,0,0,0,.564-4.141Zm-.764-.2-.014,0h0l.041,0c.03,0,.063.005.1.01a1.845,1.845,0,0,1,.25.049c.047.013.1.028.147.047l.077.03.01,0a2.148,2.148,0,0,0-.333-.09Z" transform="translate(-96.102 -354.282)" fill="#f88f5e"></path></g><g transform="translate(40.339 46.524)"><circle cx="3.393" cy="3.393" r="3.393" fill="#f88f5e"></circle></g><g transform="translate(3.332 40.651)"><path d="M70.833,408.231,78.586,389.3c-.12-.442-2.969-24.161-2.969-24.161-.12-2.187,2.053-3.785,4.829-3.552s14.237,8.3,14.357,10.485L81.977,397.106v0l-.336.653-6.663,13.133a3.938,3.938,0,0,1-.221.421h0a12.006,12.006,0,0,0-.924,3.335c.179,1.094.046,1.933-.4,2.093-.631.226-1.652-1.011-2.281-2.763A13.963,13.963,0,0,1,70.833,408.231Z" transform="translate(-70.66 -361.566)" fill="#f88f5e"></path></g><g transform="translate(3.332 40.651)"><path d="M70.833,408.231,78.586,389.3c-.12-.442-2.969-24.161-2.969-24.161-.12-2.187,2.053-3.785,4.829-3.552s14.237,8.3,14.357,10.485L81.977,397.106v0l-.336.653-6.663,13.133a3.938,3.938,0,0,1-.221.421h0a12.006,12.006,0,0,0-.924,3.335c.179,1.094.046,1.933-.4,2.093-.631.226-1.652-1.011-2.281-2.763A13.963,13.963,0,0,1,70.833,408.231Z" transform="translate(-70.66 -361.566)" fill="#f57942"></path></g><g transform="translate(3.332 40.651)"><path d="M70.833,408.231,78.586,389.3c-.12-.442-2.969-24.161-2.969-24.161-.12-2.187,2.053-3.785,4.829-3.552a6.661,6.661,0,0,1,2,.7c-2.459.045-4.294,1.558-4.184,3.572,0,0,2.85,23.719,2.97,24.161l-7.754,18.929a13.982,13.982,0,0,0,.322,5.75c.021.059.043.115.065.172.127.986-.016,1.725-.429,1.874-.631.226-1.652-1.011-2.281-2.763A13.963,13.963,0,0,1,70.833,408.231Z" transform="translate(-70.66 -361.566)" fill="#f88f5e"></path></g><g transform="translate(5.657 74.532)"><path d="M74.7,399.793c-1.166,2.511-1.913,4.638-1.668,4.752s1.389-1.83,2.555-4.341,1.912-4.639,1.667-4.752S75.866,397.282,74.7,399.793Z" transform="translate(-72.985 -395.447)" fill="#f99c70"></path></g><g transform="translate(13.477 49.127)"><path d="M80.972,374.829s9.422,22.459,9.837,22.963l.446,16.554c-.007.915,2.7,3.908,3.839,4.554,1.619.919,3.2,1.191,3.53.607a.569.569,0,0,0,.042-.412,3.17,3.17,0,0,0-1.105-1.434,7.3,7.3,0,0,1-1.428-2.757v-.023l.962-18c.42-.894,3.66-21.314,3.66-21.314-.51-1.484-7.158-3.925-11.89-4.992a12.935,12.935,0,0,0-4.219-.479C81.911,370.627,80.257,372.758,80.972,374.829Z" transform="translate(-80.805 -370.042)" fill="#f88f5e"></path></g><g transform="translate(17.5 49.656)"><path d="M84.994,375.336S94.416,397.8,94.831,398.3l.448,16.554c-.007.809,2.109,3.244,3.387,4.242a3.17,3.17,0,0,0-1.105-1.434,7.3,7.3,0,0,1-1.428-2.757v-.023l.962-18c.42-.894,3.66-21.314,3.66-21.314-.51-1.484-7.158-3.925-11.89-4.992-.071.007-.136.016-.2.028C85.934,371.134,84.281,373.266,84.994,375.336Z" transform="translate(-84.828 -370.571)" fill="#f57942"></path></g><g transform="translate(8.507 40.721)"><path d="M75.841,365.054c-.1-1.792,1.119-3.1,3.17-3.418-.95,4.828-.45,11.261,1.705,17.91,2.755,8.5,7.494,15.126,12.166,17.781l-11.247-.275a19.534,19.534,0,0,1-.75-5.614c-.547.625-2.718,2.975-4.943,3.643a33.488,33.488,0,0,1,1.592-3.473,8.523,8.523,0,0,0,.736-4.678C77.5,380.836,75.841,365.054,75.841,365.054Z" transform="translate(-75.835 -361.636)" fill="#4d1716"></path></g><g transform="translate(11.223 40.652)"><path d="M80.716,379.546c-2.155-6.649-2.655-13.082-1.705-17.91a6.069,6.069,0,0,1,1.435-.047c2.776.233,20.368,13.035,20.7,13.974l-3.762,21.874-4.5-.11C88.21,394.672,83.471,388.043,80.716,379.546Z" transform="translate(-78.551 -361.567)" fill="#381311"></path></g><g transform="translate(9.315 22.478)"><path d="M88.861,344.919l-11.59,14.675a2.918,2.918,0,0,0,4.353,3.872l13.223-13.223a4.012,4.012,0,0,0-5.674-5.675A4.659,4.659,0,0,0,88.861,344.919Z" transform="translate(-76.643 -343.393)" fill="#f88f5e"></path></g><g transform="translate(10.351 15.734)"><path d="M95.528,344.474s-7.351-4.378-7.35-7.825l-6.953,2.324-1.989.665s2.1,3.662-1.557,9.242l9,7.093,6.758-4.564,2.661-1.8Z" transform="translate(-77.679 -336.649)" fill="#f88f5e"></path></g><g transform="translate(4.532)"><g transform="translate(3.365 2.48)"><path d="M77.219,338.49a9.1,9.1,0,0,0,4.043,3.085c.236.085.475.158.714.218a6.921,6.921,0,0,0,.729.136c.163.022.326.037.49.044.04,0,.079.005.119.006.128,0,.255.005.383,0,.038,0,.078,0,.116,0,2.515-.124,2.926-2.013,5.337-2.368.313-.046.6-.091.862-.143,1.614-.31,2.44-.8,4.375-2.61a1.788,1.788,0,0,0,.047-2.641,3.882,3.882,0,0,1-.261-.389,3.815,3.815,0,0,1,.183-4.089c.278-.4.31-.651-.19-.554-1.6.313-4.037-.839-4.3-2.03a6.608,6.608,0,0,0-1.957-2.6c-.124-.072-.249-.141-.377-.208a8.151,8.151,0,0,0-7.633,0c-.17.089-.338.185-.5.291-.211.13-.417.273-.619.427q-.2.153-.4.323c-.134.114-.265.233-.39.357a9.371,9.371,0,0,0-2.758,6.464c0,.021,0,.043,0,.063s0,.021,0,.031c-.006.207,0,.414.006.62v.009a.047.047,0,0,0,0,.012A9.818,9.818,0,0,0,77.219,338.49Z" transform="translate(-75.225 -323.395)" fill="#f57942"></path></g><g transform="translate(2.284 0.97)"><path d="M75.464,335.99a9.463,9.463,0,0,0,3.833,3.627c.238.118.481.224.727.317a7.6,7.6,0,0,0,.755.238q.255.068.515.113c.042.009.083.017.125.024.136.022.271.041.408.054.041.006.083.01.124.013,2.7.234,3.422-1.578,6.042-1.586.341,0,.651-.006.94-.019,1.765-.079,2.719-.445,5.055-1.964a1.712,1.712,0,0,0,.453-2.607,3.529,3.529,0,0,1-.473-1.327,3.659,3.659,0,0,1,1.073-3.117c.357-.353.43-.6-.118-.575-1.753.083-4.168-1.4-4.264-2.619s-1.687-2.854-1.687-2.854c-.121-.089-.243-.175-.369-.259a9.318,9.318,0,0,0-8.126-1.081q-.291.1-.58.217-.366.148-.724.335-.24.123-.476.262c-.16.1-.317.194-.469.3a9.284,9.284,0,0,0-3.922,6.007c0,.02-.008.042-.012.062a.176.176,0,0,0,0,.031c-.038.2-.067.409-.089.615v.008l0,.012A9.242,9.242,0,0,0,75.464,335.99Z" transform="translate(-74.144 -321.885)" fill="#f88f5e"></path></g><g transform="translate(7.272 0.565)"><path d="M79.321,323.656a5.184,5.184,0,0,0,2.173,2.977c.029.02.058.039.089.057a5.206,5.206,0,0,0,7.172-1.655,5.207,5.207,0,0,1-8.281-2.679,5.287,5.287,0,0,1-.163-.876c-.086.029-.17.061-.256.094q-.458.172-.914.392A5.223,5.223,0,0,0,79.321,323.656Z" transform="translate(-79.132 -321.48)" fill="#d3c8dd"></path></g><g transform="translate(6.367 0.659)"><path d="M81.256,328.108a5.263,5.263,0,0,0,.737.274,5.174,5.174,0,0,0,3.767-.345,5.222,5.222,0,0,1-4.188-1.33l-.078-.074a5.206,5.206,0,0,1-1.439-5.059q-.458.172-.914.392-.408.2-.818.424A5.2,5.2,0,0,0,81.256,328.108Z" transform="translate(-78.227 -321.574)" fill="#d3c8dd"></path></g><g transform="translate(0.726 6.936)"><path d="M73.536,329.335a1.962,1.962,0,0,0,2.922-1.484,1.96,1.96,0,1,1-3.86.218A1.956,1.956,0,0,0,73.536,329.335Z" transform="translate(-72.586 -327.851)" fill="#d3c8dd"></path></g><g transform="translate(0.028 6.302)"><path d="M73.207,329.62a1.96,1.96,0,0,0,2.257-1.609,1.938,1.938,0,0,0-.03-.794,1.96,1.96,0,1,1-3.546,1.539A1.958,1.958,0,0,0,73.207,329.62Z" transform="translate(-71.888 -327.217)" fill="#d3c8dd"></path></g><g transform="translate(0 8.577)"><path d="M75,330.6a1.961,1.961,0,0,0-3.139.942,1.96,1.96,0,1,1,3.837.471A1.955,1.955,0,0,0,75,330.6Z" transform="translate(-71.86 -329.492)" fill="#d3c8dd"></path></g><g transform="translate(1.05)"><path d="M85.274,321.077a9.417,9.417,0,0,0-4.962.4c-.087.029-.171.06-.257.094-.3.115-.61.247-.914.392q-.408.193-.818.424c-.139.076-.277.154-.416.237a10.138,10.138,0,0,0-4.989,8.948c0,.016,0,.032,0,.047a8.342,8.342,0,0,0,1.149,3.875,13.516,13.516,0,0,0,2.743,3.492,1.99,1.99,0,0,1-.563,3.345,6.679,6.679,0,0,1-1.924.467,6.706,6.706,0,0,0,4.824-.617,6.672,6.672,0,0,1-2.33,2,6.681,6.681,0,0,0,5.4-4.55,2.734,2.734,0,0,0,.753-1.1,5.327,5.327,0,0,0-.029-3.193,6.725,6.725,0,0,1-.376-2.115A4.743,4.743,0,0,1,84.527,330c-2.484-.163-3.189-1.045-3.27-1.892a2.678,2.678,0,0,1,.315-1.4.105.105,0,0,1,.01-.018,2.55,2.55,0,0,1,.142-.248,6.855,6.855,0,0,0,5.389-1.3,7.487,7.487,0,0,0,2.068-2.773C87.313,322.948,86.629,321.324,85.274,321.077Z" transform="translate(-72.91 -320.915)" fill="#d3c8dd"></path></g><g transform="translate(9.185 10.433)"><circle cx="1.766" cy="1.766" r="1.766" fill="#f88f5e"></circle></g></g><g transform="translate(31.682 1.051)"><path d="M100.079,322.7l-.009.01-.035.04c-.023.027-.048.057-.075.091a2.683,2.683,0,0,0-.173.249c-.03.049-.06.1-.09.16l-.043.088-.031.068-.043.107c-.03.078-.063.169-.1.273l-.056.212-.031.123-.016.066-.01.053-.043.23-.023.127c-.009.045-.016.088-.021.125l-.071.532-.056.582c-.022.211-.029.415-.046.641s-.031.461-.038.7l-.03.748-.017.791c-.014.544-.014,1.109-.015,1.7s.008,1.186.014,1.8.023,1.229.038,1.847.031,1.237.055,1.842.044,1.2.065,1.78c.053,1.151.1,2.226.145,3.147.1,1.839.166,3.065.166,3.065a2.916,2.916,0,1,0,5.823-.315c0-.071-.01-.14-.019-.21l0-.027s-.155-1.2-.388-3c-.11-.9-.237-1.951-.374-3.076l-.193-1.732c-.068-.591-.129-1.189-.187-1.787s-.123-1.2-.171-1.784-.106-1.166-.142-1.72-.082-1.1-.106-1.6l-.039-.735-.024-.676c-.01-.22-.011-.421-.013-.613s-.008-.381,0-.54l.009-.456.019-.347.019-.222,0-.022v-.016l0-.021a.643.643,0,0,1-.034.1l-.018.036c0-.008-.013.029-.024.053l-.036.074c-.025.048-.051.092-.077.133a1.628,1.628,0,0,1-.15.206c-.024.028-.046.053-.067.075l-.028.029,0,0,.009-.011.167-.221a2.177,2.177,0,0,0-3.367-2.755Z" transform="translate(-99.01 -321.966)" fill="#f88f5e"></path></g><g transform="translate(7.086 20.253)"><path d="M90.038,379.36a49.82,49.82,0,0,0,14.632-2.454l0-.006c-.551-1.133-.823-7.491-.944-8.534a14.5,14.5,0,0,0-2.217-6.091,6.064,6.064,0,0,1-.392-5.778,10.988,10.988,0,0,0,.845-5.6c-.392-4.549-8.634-8.294-10.9-9.73l-.006,0a5.049,5.049,0,0,1-3.515,2.911c-2.455.554-5.231.847-7.791-.342l-.006,0c-.458,1.243-1.286,3.452-1.975,4.938-2.091,4.511-2.714,7.73-2.159,15.111.226,3-1,12.346-1.162,13.823a6.131,6.131,0,0,0-.013,1.188l0,0q.917.1,1.846.185a104.825,104.825,0,0,0,11.651.438A13.9,13.9,0,0,0,90.038,379.36Z" transform="translate(-74.414 -341.168)" fill="#ed8cb5"></path></g><g transform="translate(7.086 22.824)"><path d="M80.665,344.1a8.436,8.436,0,0,1-.913-.36l-.006,0c-.458,1.243-1.286,3.452-1.975,4.938-2.091,4.511-2.714,7.73-2.159,15.111.226,3-1,12.346-1.162,13.823a6.131,6.131,0,0,0-.013,1.188l0,0q.917.1,1.846.185,2.071.191,4.084.3c-.582-2.2-1.081-4.512-1.478-6.9C76.993,360.99,77.833,350.542,80.665,344.1Z" transform="translate(-74.414 -343.739)" fill="#f0a1c6"></path></g><g transform="translate(32.442 26.05)"><path d="M101.965,350.9a6.649,6.649,0,0,0-2.195-3.933A46.828,46.828,0,0,1,102,351.392C101.99,351.23,101.979,351.065,101.965,350.9Z" transform="translate(-99.77 -346.965)" fill="#ed8cb5"></path></g><g transform="translate(23.323 30.896)"><path d="M99.068,351.811s1.733,6.494-8.417,6.392C90.651,358.2,99.209,358.4,99.068,351.811Z" transform="translate(-90.651 -351.811)" fill="#e17da3"></path></g><g transform="translate(31.682 1.051)"><path d="M100.079,322.7l-.009.01-.035.04c-.023.027-.048.057-.075.091a2.683,2.683,0,0,0-.173.249c-.03.049-.06.1-.09.16l-.043.088-.031.068-.043.107c-.03.078-.063.169-.1.273l-.056.212-.031.123-.016.066-.01.053-.043.23-.023.127c-.009.045-.016.088-.021.125l-.071.532-.056.582c-.022.211-.029.415-.046.641s-.031.461-.038.7l-.03.748-.017.791c-.014.544-.014,1.109-.015,1.7s.008,1.186.014,1.8.023,1.229.038,1.847.031,1.237.055,1.842.044,1.2.065,1.78c.053,1.151.1,2.226.145,3.147.1,1.839.166,3.065.166,3.065a2.916,2.916,0,1,0,5.823-.315c0-.071-.01-.14-.019-.21l0-.027s-.155-1.2-.388-3c-.11-.9-.237-1.951-.374-3.076l-.193-1.732c-.068-.591-.129-1.189-.187-1.787s-.123-1.2-.171-1.784-.106-1.166-.142-1.72-.082-1.1-.106-1.6l-.039-.735-.024-.676c-.01-.22-.011-.421-.013-.613s-.008-.381,0-.54l.009-.456.019-.347.019-.222,0-.022v-.016l0-.021a.643.643,0,0,1-.034.1l-.018.036c0-.008-.013.029-.024.053l-.036.074c-.025.048-.051.092-.077.133a1.628,1.628,0,0,1-.15.206c-.024.028-.046.053-.067.075l-.028.029,0,0,.009-.011.167-.221a2.177,2.177,0,0,0-3.367-2.755Z" transform="translate(-99.01 -321.966)" fill="#f57942"></path></g><g transform="translate(15.796 19.849)"><path d="M103.439,346.332l-11.7,5.428-2.912,1.35a4.5,4.5,0,0,1-.509.2,4.015,4.015,0,1,1-2.362-7.674l3.486-1.074,11.906-3.665a2.92,2.92,0,0,1,2.088,5.439Z" transform="translate(-83.124 -340.764)" fill="#f57942"></path></g><g transform="translate(31.683 1.053)"><path d="M99.012,330.41c0,.589.007,1.187.014,1.8s.022,1.229.038,1.846.03,1.237.054,1.842.044,1.2.065,1.779c.054,1.152.1,2.228.146,3.148.012.237.026.465.038.68.034.636.061,1.171.084,1.572l1.677-.528a1.36,1.36,0,0,0,.95-1.366v-.011c-.006-.131-.011-.265-.016-.4-.04-.9-.084-1.929-.131-3.017-.021-.625-.042-1.274-.064-1.933s-.04-1.328-.054-2-.033-1.342-.039-2.006-.019-1.314-.014-1.954,0-1.249.014-1.84c.007-.3.013-.58.018-.859s.021-.553.029-.813.025-.515.039-.758.024-.467.047-.7.038-.437.056-.633.048-.4.071-.576c0-.042.011-.088.019-.136s.016-.094.023-.138c.016-.089.03-.173.043-.249l.011-.058.016-.071c.01-.047.021-.093.031-.134.021-.086.04-.163.056-.231.033-.113.066-.212.1-.3.015-.041.029-.08.043-.115s.021-.05.03-.075.028-.057.04-.087a2.195,2.195,0,0,0-2.363.61l-.009.011c-.011.01-.021.024-.035.038s-.049.058-.075.093a2.2,2.2,0,0,0-.173.249c-.031.049-.061.1-.09.158-.014.03-.028.058-.044.089s-.019.046-.029.068-.028.068-.044.107c-.03.078-.063.169-.1.273-.017.063-.035.134-.056.213-.01.038-.021.08-.031.122l-.016.066-.01.054-.044.228c-.007.042-.015.084-.022.128s-.016.087-.021.125c-.021.16-.046.338-.072.532-.015.179-.035.374-.055.582s-.03.415-.046.641-.031.46-.038.7-.019.49-.03.748-.01.519-.017.791C99.012,329.26,99.012,329.825,99.012,330.41Z" transform="translate(-99.011 -321.968)" fill="#f88f5e"></path></g><g transform="translate(15.796 19.853)"><path d="M83.3,350.651c.023.073.049.146.075.218a4.13,4.13,0,0,1,3.034-3.692l13.039-4.1,1.677-.528a1.36,1.36,0,0,0,.95-1.366v-.011c-.006-.131-.011-.265-.016-.4a2.936,2.936,0,0,0-.711.126l-1.984.61-13.408,4.127A4.017,4.017,0,0,0,83.3,350.651Z" transform="translate(-83.124 -340.768)" fill="#f88f5e"></path></g><g transform="translate(15.796 23.271)"><path d="M91.742,351.988l-2.912,1.463a4.393,4.393,0,0,1-.509.212,3.968,3.968,0,0,1-5.018-2.876,4.427,4.427,0,0,1,2.656-5.438l3.486-1.163a18.222,18.222,0,0,1,1.816,4.775A20.49,20.49,0,0,1,91.742,351.988Z" transform="translate(-83.124 -344.186)" fill="#ed8cb5"></path></g><g transform="translate(15.797 25.219)"><path d="M89.527,352.658a4.223,4.223,0,0,1-.509.211A3.967,3.967,0,0,1,84,349.994a4.643,4.643,0,0,1,.606-3.86,4.575,4.575,0,0,0-1.3,4.653,3.968,3.968,0,0,0,5.018,2.876,4.393,4.393,0,0,0,.509-.212l2.912-1.463c-.011-.139-.027-.281-.042-.422Z" transform="translate(-83.125 -346.134)" fill="#f0a1c6"></path></g><g transform="translate(23.442 93.346)"><path d="M91.253,414.261a3,3,0,0,0-.416,2.4c.282,1.569.58,3.62.58,3.62h.795l.545-1.959a11.72,11.72,0,0,1,3.774,1.566,1.688,1.688,0,0,0,1.126.393c1.561-.041,4.475-.147,4.406-.79-.134-1.236-2.811-.411-4.512-1.815C93.661,417.732,91.253,414.261,91.253,414.261Z" transform="translate(-90.77 -414.261)" fill="#651e1d"></path></g><g transform="translate(0 87.404)"><path d="M70.81,408.319a2.718,2.718,0,0,0-1.859,1.621c-.678,1.442-1.623,3.287-1.623,3.287l.648.46,1.579-1.281a11.721,11.721,0,0,1,2.171,3.462,1.679,1.679,0,0,0,.691.972c1.3.87,3.733,2.472,4.049,1.907.607-1.086-2.054-1.963-2.628-4.093C70.632,412.451,70.81,408.319,70.81,408.319Z" transform="translate(-67.328 -408.319)" fill="#651e1d"></path></g><g transform="translate(9.986 0.15)"><ellipse cx="3.363" cy="1.823" rx="3.363" ry="1.823" transform="translate(0 3.155) rotate(-27.968)" fill="#e0d5ea"></ellipse></g><g transform="translate(11.178 1.544)"><path d="M78.583,324.875c.3.561,1.377.57,2.412.02s1.631-1.449,1.334-2.009-1.378-.57-2.412-.021S78.285,324.314,78.583,324.875Z" transform="translate(-78.506 -322.459)" fill="#ebdfee"></path></g><g transform="translate(6.839 4.042)"><ellipse cx="2.283" cy="1.237" rx="2.283" ry="1.237" transform="translate(0 3.372) rotate(-47.617)" fill="#e0d5ea"></ellipse></g><g transform="translate(7.224 4.892)"><ellipse cx="1.439" cy="0.78" rx="1.439" ry="0.78" transform="matrix(0.674, -0.739, 0.739, 0.674, 0, 2.126)" fill="#ebdfee"></ellipse></g><g transform="translate(6.321 7.58)"><ellipse cx="1.341" cy="0.727" rx="1.341" ry="0.727" transform="matrix(0.522, -0.853, 0.853, 0.522, 0, 2.288)" fill="#e0d5ea"></ellipse></g></g><g transform="translate(38.045 1.825)"><path d="M105.377,322.105c.114,2.624,2.775,4.639,5.942,4.5s5.643-2.376,5.529-5-4.235-3.667-6.624-1.768C107.918,321.672,105.263,319.482,105.377,322.105Z" transform="translate(-105.373 -318.867)" fill="#f88f5e"></path></g><g transform="translate(32.719 3.284)"><path d="M100.047,323.309a4.087,4.087,0,0,0,2.573,3.615c2.459,1.042,1.692-3.015,3.156-3.615,3.479-1.424-.289-3.5-2.864-2.864C101.376,320.826,100.047,321.727,100.047,323.309Z" transform="translate(-100.047 -320.326)" fill="#f88f5e"></path></g><g transform="translate(99.082 48.054)"><circle cx="4.947" cy="4.947" r="4.947" fill="#f88f5e"></circle></g><g transform="translate(81.088 16.528)"><path d="M165.619,361a3.5,3.5,0,0,0,2.9-5.438l-13.7-20.434a3.5,3.5,0,0,0-5.815,3.882l13.7,20.435A3.494,3.494,0,0,0,165.619,361Z" transform="translate(-148.416 -333.57)" fill="#3e3b60"></path><g transform="translate(0.001 1.753)"><path d="M148.882,335.323a3.5,3.5,0,0,0,.471,1.21l15.909,24.444a3.489,3.489,0,0,1-2.554-1.535l-13.7-20.435A3.5,3.5,0,0,1,148.882,335.323Z" transform="translate(-148.417 -335.323)" fill="#514d7d"></path></g><g transform="translate(13.609 21.099)"><path d="M162.025,358.42l.683,1.022A3.494,3.494,0,0,0,165.619,361a3.422,3.422,0,0,0,1.27-.242,3.333,3.333,0,0,0,.667-.346,3.5,3.5,0,0,0,.967-4.849l-.594-.89-5.853,3.711A.333.333,0,0,0,162.025,358.42Z" transform="translate(-162.025 -354.669)" fill="#2d2c47"></path><g transform="translate(0 3.015)"><path d="M163.174,357.684l2.088,3.293a3.49,3.49,0,0,1-2.554-1.535l-.683-1.022a.333.333,0,0,1,.051-.04Z" transform="translate(-162.025 -357.684)" fill="#3e3b60"></path></g></g><g transform="translate(13.963 21.705)"><rect width="7.956" height="4.583" rx="2.291" transform="translate(9.173 3.87) rotate(147.614)" fill="#535082"></rect></g><g transform="translate(14.111 24.739)"><path d="M162.708,359.327l1.6-1.018a.394.394,0,0,0,0,.417l2.067,3.26a.391.391,0,0,0,.426.168l-1.644,1.043a.39.39,0,0,1-.537-.12l-2.037-3.213A.39.39,0,0,1,162.708,359.327Z" transform="translate(-162.528 -358.309)" fill="#6563a0"></path></g></g><g transform="translate(47.873 14.187)"><path d="M122,334.884l-.022.007-1.082.306-4.514,1.278L116,335.407l-.8-2.227a3.475,3.475,0,0,1,1.557-1.573,3.392,3.392,0,0,1,.549-.223,3.525,3.525,0,0,1,2.025-.011,3.325,3.325,0,0,1,.425.157q.066.029.129.06c.107.052.209.111.309.172.06.037.117.076.175.118.028.02.057.041.085.063l.083.065a2.105,2.105,0,0,1,.161.139c.027.023.052.047.078.073s.05.049.075.075l.073.077.07.08c.048.055.093.111.138.17.019.028.04.056.06.084s.038.055.057.081l0,0,.367,1.026Z" transform="translate(-115.201 -331.229)" fill="#2d2c47"></path></g><g transform="translate(49.306 14.187)"><path d="M121.619,333.815l.384,1.069-.022.007-1.082.306-.343-1.107a3.494,3.494,0,0,0-2.346-2.321,3.437,3.437,0,0,0-1.285-.13c-.1.007-.194.021-.291.036.041-.022.082-.047.124-.068a3.392,3.392,0,0,1,.549-.223,3.525,3.525,0,0,1,2.025-.011,3.325,3.325,0,0,1,.425.157q.066.029.129.06c.107.052.209.111.309.172.06.038.117.078.175.118l.085.063.083.065c.055.045.11.091.161.139.027.023.052.047.078.073s.05.049.075.075l.073.077.07.08c.048.055.093.111.138.17.019.028.04.056.06.084s.038.055.057.081l0,0Z" transform="translate(-116.634 -331.229)" fill="#3e3b60"></path></g><g transform="translate(46.59 12.118)"><path d="M122.447,333.581l-.828.234-3.09.875-2.529.717-.605.171a.315.315,0,0,1-.387-.216l-1.079-3.807a.316.316,0,0,1,.218-.387l.3-.086,2.559-.723,3.06-.867,1.133-.321a.313.313,0,0,1,.385.217l1.079,3.806A.314.314,0,0,1,122.447,333.581Z" transform="translate(-113.918 -329.16)" fill="#535082"></path></g><g transform="translate(46.783 12.118)"><path d="M122.663,333.194l-1.079-3.806a.313.313,0,0,0-.385-.217l-1.133.321-3.06.867-2.559.723-.3.086a.223.223,0,0,0-.036.014l1.366-.386,3.06-.867,1.133-.321a.313.313,0,0,1,.385.217l1.079,3.806a.313.313,0,0,1-.178.372l.663-.188.828-.234A.314.314,0,0,0,122.663,333.194Z" transform="translate(-114.111 -329.16)" fill="#6563a0"></path></g><g transform="translate(69.1 59.378)"><path d="M137.579,387.19c-.868,5.988-1.349,10.875-1.073,10.915s1.2-4.782,2.073-10.77,1.349-10.875,1.073-10.915S138.448,381.2,137.579,387.19Z" transform="translate(-136.428 -376.42)" fill="#605b53"></path></g><g transform="translate(32.825 4.285)"><ellipse cx="1.676" cy="1.031" rx="1.676" ry="1.031" transform="translate(0 3.302) rotate(-80.061)" fill="#f99c70"></ellipse></g><g transform="translate(42.476 2.299)"><ellipse cx="2.347" cy="1.697" rx="2.347" ry="1.697" fill="#f99c70"></ellipse></g><g transform="translate(72.415 22.024)"><path d="M139.743,341.824c.2-.246.408-.479.618-.712s.428-.459.647-.682.444-.442.665-.663l.681-.645a.2.2,0,0,1,.263-.015l.734.554c.24.19.484.375.72.572s.472.391.705.592.461.407.681.625c-.274-.145-.537-.3-.8-.463s-.521-.325-.776-.495-.508-.344-.761-.517l-.748-.534.263-.015-.695.63c-.237.2-.469.414-.711.612s-.483.4-.729.593S140,341.646,139.743,341.824Z" transform="translate(-139.743 -339.066)" fill="#d1cadc"></path></g><g transform="translate(74.144 22.092)"><path d="M142.634,339.285c-.232,3.119-.406,6.244-.542,9.369s-.241,6.252-.263,9.38.009,6.255.238,9.37a38.441,38.441,0,0,0,.589,4.636,12,12,0,0,0,.644,2.224c.076.176.155.349.246.515a3.339,3.339,0,0,0,.3.477,1.429,1.429,0,0,0,.92.6,1.057,1.057,0,0,1-.6-.091,1.624,1.624,0,0,1-.493-.368,3.558,3.558,0,0,1-.637-1.025,12.416,12.416,0,0,1-.673-2.276,38.558,38.558,0,0,1-.615-4.67c-.124-1.564-.194-3.131-.236-4.7s-.055-3.134-.041-4.7c.025-3.133.125-6.264.27-9.393s.354-6.253.608-9.376a.14.14,0,0,1,.279.022Z" transform="translate(-141.472 -339.134)" fill="#d1cadc"></path></g><g transform="translate(76.212 51.805)"><g transform="translate(0.029 0.193)"><circle cx="0.724" cy="0.724" r="0.724" fill="#d1cadc"></circle></g><circle cx="0.724" cy="0.724" r="0.724" fill="#f3ebf4"></circle><g transform="translate(0.313 0.596)"><path d="M144.11,369.571a.129.129,0,1,1-.128-.128A.128.128,0,0,1,144.11,369.571Z" transform="translate(-143.853 -369.443)" fill="#d1cadc"></path><g transform="translate(0.567)"><path d="M144.677,369.571a.129.129,0,1,1-.129-.128A.128.128,0,0,1,144.677,369.571Z" transform="translate(-144.42 -369.443)" fill="#d1cadc"></path></g></g></g><g transform="translate(75.368 43.534)"><g transform="translate(0.029 0.193)"><circle cx="0.724" cy="0.724" r="0.724" fill="#d1cadc"></circle></g><circle cx="0.724" cy="0.724" r="0.724" fill="#f3ebf4"></circle><g transform="translate(0.313 0.596)"><g transform="translate(0 0)"><circle cx="0.128" cy="0.128" r="0.128" fill="#d1cadc"></circle></g><g transform="translate(0.567)"><path d="M143.832,361.3a.129.129,0,1,1-.128-.128A.129.129,0,0,1,143.832,361.3Z" transform="translate(-143.575 -361.172)" fill="#d1cadc"></path></g></g></g><g transform="translate(75.409 33.337)"><g transform="translate(0.029 0.193)"><path d="M144.215,351.3a.724.724,0,1,1-.724-.724A.724.724,0,0,1,144.215,351.3Z" transform="translate(-142.766 -350.572)" fill="#d1cadc"></path></g><circle cx="0.724" cy="0.724" r="0.724" fill="#f3ebf4"></circle><g transform="translate(0.313 0.596)"><path d="M143.306,351.1a.128.128,0,1,1-.128-.129A.128.128,0,0,1,143.306,351.1Z" transform="translate(-143.05 -350.975)" fill="#d1cadc"></path><g transform="translate(0.566 0)"><circle cx="0.128" cy="0.128" r="0.128" fill="#d1cadc"></circle></g></g></g><g transform="translate(75.537 24.207)"><g transform="translate(0.029 0.193)"><circle cx="0.724" cy="0.724" r="0.724" fill="#d1cadc"></circle></g><circle cx="0.724" cy="0.724" r="0.724" fill="#f3ebf4"></circle><g transform="translate(0.313 0.596)"><circle cx="0.128" cy="0.128" r="0.128" fill="#d1cadc"></circle><g transform="translate(0.567)"><circle cx="0.128" cy="0.128" r="0.128" fill="#d1cadc"></circle></g></g></g></g></g></g></g></g></svg> 