<?xml version="1.0" encoding="UTF-8"?> <svg xmlns="http://www.w3.org/2000/svg" xmlns:xlink="http://www.w3.org/1999/xlink" viewBox="-32.23 -3.17 361.6 210.67"><defs><filter id="a" x="0" y="0" width="244" height="244"><feOffset dy="13"></feOffset><feGaussianBlur stdDeviation="8" result="b"></feGaussianBlur><feFlood flood-opacity="0.082"></feFlood><feComposite operator="in" in2="b"></feComposite><feComposite in="SourceGraphic"></feComposite></filter><clipPath id="c"><circle cx="73.904" cy="73.904" r="73.904" fill="none"></circle></clipPath><clipPath id="d"><path d="M326.105,358.75s25.615,7.458,42.4-18.959c8.379-13.187,18.1-33.444-27.95-83.566-9.275-10.1-20.245-51.114-66.113-64.716s-111.471-31.865-119.708-11.034-14.369,23.069-31.211,24.439-61.867,33.618-68.318,56.008,23.292,41.9,21.141,52.544S53.272,346.749,62.664,356.36c1.86,1.9,7.1,4.02,14.431,4.02,32.176,0,91.7-.622,91.7-.622Z" transform="translate(-54.29 -171.05)" fill="none"></path></clipPath></defs><g transform="translate(24 11)"><g transform="matrix(1, 0, 0, 1, -24, -11)" filter="url(#a)"><g transform="translate(24 11)" fill="#fafafa" stroke="#e5e5e5" stroke-width="1"><circle cx="98" cy="98" r="98" stroke="none"></circle><circle cx="98" cy="98" r="97.5" fill="none"></circle></g></g><g transform="translate(24 25)"><g clip-path="url(#c)"><g transform="translate(-55.986 -39.156)"><path d="M326.105,358.75s25.615,7.458,42.4-18.959c8.379-13.187,18.1-33.444-27.95-83.566-9.275-10.1-20.245-51.114-66.113-64.716s-111.471-31.865-119.708-11.034-14.369,23.069-31.211,24.439-61.867,33.618-68.318,56.008,23.292,41.9,21.141,52.544S53.272,346.749,62.664,356.36c1.86,1.9,7.1,4.02,14.431,4.02,32.176,0,91.7-.622,91.7-.622Z" transform="translate(-54.29 -171.05)" fill="#655e84"></path><g clip-path="url(#d)"><g transform="translate(-24.245 36.108)"><path d="M128.619,258.332l74.47,56.971L42.12,352.477s1.866-12.172,2.986-17.791c1.136-5.679-3.915-13.1-10.3-21.821Z" transform="translate(-34.802 -185.854)" fill="#d8d4e9"></path><path d="M42.219,323.884c2.283,4.071,3.51,7.692,2.889,10.795-.667,3.335-1.594,8.975-2.239,13.012-.266,2.115-.55,3.785-.746,4.782L97.5,339.684,83.468,331.1l45.153-72.768-93.814,54.53C38.685,314.9,40.959,319.024,42.219,323.884Z" transform="translate(-34.801 -185.854)" fill="#dbe9f0"></path><path d="M163.853,291.679l-21.681-11.637v20.62l-14.949-20.62-18.3,36.923,1.289-36.923L91.517,292.413l5.809-12.371-28.3,8.936,51.239-30.646Z" transform="translate(-26.448 -185.854)" fill="#fff" opacity="0.2" style="isolation:isolate"></path><path d="M270.2,356.487,389.13,345.154l-88.195-63.426L252.635,243,64.538,353.729Z" transform="translate(-27.544 -189.595)" fill="#c8c6d3"></path><path d="M66.734,353.167l167.237-.063L201.01,322.521,252.1,243Z" transform="translate(-27.008 -189.595)" fill="#d8d4e9"></path><path d="M304.627,323.033l-35.193-67.458L264,276.952l-8.077-11.268-4.985,11.437L236.1,248.857l-16.049,42.151-14.183-17.586-8.661,19.815-4.728-3.384-5.626,37.981,31.422-.1Z" transform="translate(2.313 -188.166)" fill="#357e68"></path><path d="M241.627,345.242l-9.017-33.748-89.948,10.927-10.756-28.59L119.23,319.966l-9.1-34.658-6.687,9.756-7.253-26.8L85.824,291.4l-16.6-70L35.683,338.456l82.028,9.726h39.438Z" transform="translate(-34.587 -194.869)" fill="#357e68"></path><g transform="translate(168.294 53.41)"><path d="M271.529,278.8l-28.863-8.4,1.711,8.4-16.258-11.122-45.924,25.387,20.253-25.387-32.37,9.942L226.882,243Z" transform="translate(-170.077 -243.005)" fill="#fff" opacity="0.2" style="isolation:isolate"></path></g><path d="M272.423,270.573a3.978,3.978,0,0,1,4.862-2.952,5.854,5.854,0,0,1,7.033-3.105,7.2,7.2,0,0,1,12.934,1.258,4.942,4.942,0,0,1,7.343,4.318h0a4.7,4.7,0,0,1-.024.479Z" transform="translate(23.199 -185.195)" fill="#fff"></path><path d="M301.039,256.18c-4.184.073-9.219.249-13.4.328-7.9.139-15.825.279-23.7-.223a53.322,53.322,0,0,1-12.958-2.1c-2.468-.8-4.784-1.891-7.324-2.539-4.465-1.141-9.285-.836-13.975-1.021a129.227,129.227,0,0,1-21.324-3.221c-10.8-2.256-37.4-5.633-38.083-14.183a3.663,3.663,0,0,1,.936-2.817,6.235,6.235,0,0,1,2.275-1.335c12.534-5,27.481-3.264,41.5-4.138a35.576,35.576,0,0,0,10.465-1.885c3.776-1.451,7.069-4.023,11.265-4.23,2.95-.144,6.857.586,8.125-1.505a4.477,4.477,0,0,0,.389-1.671c.407-2.438,5.636-4.017,8.44-4.844,9.786,3.25,14.741,8,21.416,13.261a15.468,15.468,0,0,0-2.239.351c-2.688.644-4.94,2.14-7.62,2.8a26.227,26.227,0,0,1-6.421.488l-23.44-.144a14.741,14.741,0,0,0-4.367.408,23.672,23.672,0,0,0-3.665,1.814c-4.02,2.025-9.093,2.058-13.787,2.766-1.493.224-3.133.622-3.844,1.671-1.189,1.748,1.061,3.748,3.329,4.621,9.108,3.5,20.322.1,30.015,2.453,2.593.628,5,1.652,7.522,2.427,8.284,2.544,17.5,2.32,26.354,1.591,5.513-.454,11.041-1.089,16.565-1.331,2.591,3.732,4.816,7.4,6.779,10.824Z" transform="translate(-1.74 -197.456)" fill="#fff" opacity="0.37" style="isolation:isolate"></path><path d="M92.379,221.1c3.419-.307,6.881-.011,10.31-.264a31.7,31.7,0,0,0,10.627-2.681,14.417,14.417,0,0,1,2.823-1.091,16.487,16.487,0,0,1,4.106-.065,22.874,22.874,0,0,0,7.9-1.094c.853-.277,1.805-.735,1.946-1.558.179-1.05-1.062-1.8-2.15-2.161s-2.39-.8-2.624-1.845c-.1-.468.036-1-.239-1.4a1.775,1.775,0,0,0-.855-.556,34.538,34.538,0,0,0-11.427-2.139c-.526-.02-1.064-.016-1.607,0a128.866,128.866,0,0,1,19.894-6.019c.442,0,.883-.011,1.325-.024,5.2-.144,10.793-.613,15.234,1.884a2.659,2.659,0,0,1,1.347,1.335c.468,1.473-1.576,2.479-3.194,2.861-.249,1.021,1.211,1.6,2.331,1.784a69.033,69.033,0,0,1,10.626,2.613c2.448.812,5.165,2.115,5.649,4.463a4.623,4.623,0,0,1-2.054,4.425,11.914,11.914,0,0,1-5.037,1.879c-6.117,1.091-12.441.342-18.644.887a5.028,5.028,0,0,0-2.364.631c-1.065.709-1.351,2.039-2.1,3.036-1.479,1.979-4.444,2.341-7.05,2.472q-8.707.437-17.427.131a15.773,15.773,0,0,0-4.367.238,24.191,24.191,0,0,0-4.166,1.815,32.8,32.8,0,0,1-9.03,2.32,18.849,18.849,0,0,1-.054-11.072C92.187,221.628,92.279,221.36,92.379,221.1Z" transform="translate(-21.01 -200.074)" fill="#fff" opacity="0.37" style="isolation:isolate"></path><path d="M141.307,252.334a6.575,6.575,0,0,0-8.062-4.889,9.68,9.68,0,0,0-11.638-5.142,11.925,11.925,0,0,0-21.418,2.084,8.184,8.184,0,0,0-12.161,7.149c0,.267.015.532.04.794Z" transform="translate(-21.81 -191.174)" fill="#fff"></path></g></g></g></g><g transform="translate(19.608 26.767)"><path d="M149.191,227.887c-1.587,3.7.895,9.076,4.958,9.849a5.3,5.3,0,0,0,6.121-3.592c1.428-4.342.882-7.734-1.549-9.29C155.582,222.847,150.5,224.832,149.191,227.887Z" transform="translate(-106.838 -224.038)" fill="#002a4a"></path><g transform="translate(49.972 89.282)"><path d="M162.332,307.42a.327.327,0,0,1-.281-.157l-6.782-10.954a.331.331,0,0,1,.562-.348l6.782,10.954a.331.331,0,0,1-.281.505Z" transform="translate(-155.22 -295.804)" fill="#c5eafa"></path></g><g transform="translate(66.344 68.117)"><path d="M189.546,321.122a21.165,21.165,0,1,1,21.166-21.164A21.188,21.188,0,0,1,189.546,321.122Zm0-39.686a18.52,18.52,0,1,0,18.516,18.522,18.538,18.538,0,0,0-18.516-18.522Z" transform="translate(-168.38 -278.792)" fill="#002a4a"></path></g><g transform="translate(71.085 72.864)"><path d="M188.613,315.451a16.422,16.422,0,1,1,16.423-16.422A16.443,16.443,0,0,1,188.613,315.451Zm0-32.188a15.764,15.764,0,1,0,15.763,15.764A15.783,15.783,0,0,0,188.613,283.263Z" transform="translate(-172.191 -282.607)" fill="#a1c2e7"></path></g><g transform="translate(73.148 82.54)"><path d="M188.211,311.489a14.377,14.377,0,0,1-14.362-14.362,14.189,14.189,0,0,1,1.584-6.563.329.329,0,0,1,.443-.143h0a.332.332,0,0,1,.143.445,13.551,13.551,0,0,0-1.51,6.26,13.707,13.707,0,0,0,19.394,12.465.331.331,0,0,1,.277.6A14.256,14.256,0,0,1,188.211,311.489Z" transform="translate(-173.849 -290.385)" fill="#a1c2e7"></path></g><g transform="translate(87.177 74.92)"><path d="M195.7,289.362a.327.327,0,0,1-.241-.1,13.748,13.748,0,0,0-10-4.336.331.331,0,0,1-.331-.331h0a.331.331,0,0,1,.331-.331h0a14.421,14.421,0,0,1,10.481,4.545.332.332,0,0,1-.016.468h0A.33.33,0,0,1,195.7,289.362Z" transform="translate(-185.126 -284.26)" fill="#c5eafa"></path></g><g transform="translate(63.599 65.375)"><path d="M167.169,301.488a1,1,0,0,1-1-1,23.905,23.905,0,0,1,39.343-18.252.992.992,0,1,1-1.283,1.514,21.921,21.921,0,0,0-36.076,16.738A1,1,0,0,1,167.169,301.488Z" transform="translate(-166.174 -276.588)" fill="#fbbf69"></path></g><path d="M151.021,288.119l-4.051,3.508s-1.361.149-1.866-.561a2.286,2.286,0,0,1-.392-1.493l3.783-4.521Z" transform="translate(-107.815 -209.146)" fill="#f1766c"></path><path d="M148.136,290.122c.872-.342,0,0,1.009,3.1.931,2.04,1.953,2.871,1.6,3.286a2.171,2.171,0,0,1-.832.587l-6.483-7.132s1.428-2.54,2.115-1.564C148.574,290.966,148.136,290.122,148.136,290.122Z" transform="translate(-108.126 -208.383)" fill="#ee5b44"></path><path d="M147.271,261.4s23.111,10.05,23.111,15.687c0,3.337-16.9,18.155-16.9,18.155l-3.692-3.969s9.206-10.812,8.818-12.158-22.1-10.219-22.818-12.369,3.007-5.9,3.007-5.9Z" transform="translate(-110.013 -215.054)" fill="#a84131"></path><g transform="translate(0 68.117)"><path d="M136.217,321.122a21.165,21.165,0,1,1,21.166-21.164A21.189,21.189,0,0,1,136.217,321.122Zm0-39.686a18.52,18.52,0,1,0,18.52,18.52,18.538,18.538,0,0,0-18.52-18.52Z" transform="translate(-115.053 -278.792)" fill="#002a4a"></path></g><g transform="translate(4.741 72.864)"><path d="M135.286,315.451a16.422,16.422,0,1,1,16.422-16.422A16.442,16.442,0,0,1,135.286,315.451Zm0-32.188a15.764,15.764,0,1,0,15.764,15.764A15.782,15.782,0,0,0,135.286,283.263Z" transform="translate(-118.864 -282.607)" fill="#a1c2e7"></path></g><g transform="translate(6.803 82.54)"><path d="M134.883,311.489a14.377,14.377,0,0,1-14.362-14.362,14.2,14.2,0,0,1,1.584-6.563.331.331,0,1,1,.588.3,13.535,13.535,0,0,0-1.51,6.26,13.707,13.707,0,0,0,19.394,12.465.33.33,0,0,1,.275.6A14.241,14.241,0,0,1,134.883,311.489Z" transform="translate(-120.521 -290.385)" fill="#a1c2e7"></path></g><g transform="translate(20.834 74.92)"><path d="M142.371,289.362a.327.327,0,0,1-.241-.1,13.753,13.753,0,0,0-10-4.336.331.331,0,0,1-.331-.331h0a.331.331,0,0,1,.331-.331h0a14.417,14.417,0,0,1,10.483,4.545.332.332,0,0,1-.015.468h0A.336.336,0,0,1,142.371,289.362Z" transform="translate(-131.799 -284.26)" fill="#c5eafa"></path></g><g transform="translate(7.414 65.378)"><path d="M149.558,283.992a.99.99,0,0,1-.641-.235,21.927,21.927,0,0,0-26.361-1.473.992.992,0,1,1-1.106-1.647,23.911,23.911,0,0,1,28.75,1.606,1,1,0,0,1,.116,1.4A.985.985,0,0,1,149.558,283.992Z" transform="translate(-121.012 -276.59)" fill="#fbbf69"></path></g><g transform="translate(20.889 85.2)"><path d="M132.118,294.42a.274.274,0,0,1-.012-.547l29.14-1.35a.273.273,0,0,1,.286.259v0a.273.273,0,0,1-.261.286h0l-29.14,1.35Z" transform="translate(-131.844 -292.523)" fill="#357e68"></path></g><g transform="translate(20.891 91.469)"><path d="M161.672,299.459h-.012l-29.553-1.35a.275.275,0,0,1-.261-.286.28.28,0,0,1,.286-.261l29.555,1.35a.275.275,0,0,1,.261.286h0A.273.273,0,0,1,161.672,299.459Z" transform="translate(-131.845 -297.562)" fill="#357e68"></path></g><path d="M132.654,299.4a3.008,3.008,0,1,1,3.008-3.008A3.009,3.009,0,0,1,132.654,299.4Z" transform="translate(-111.491 -207.112)" fill="#002a4a"></path><g transform="translate(46.025 56.896)"><path d="M152.875,297.35a.827.827,0,0,1-.317-1.591,16.734,16.734,0,0,0,8.46-7.748l4.673-8.992a18.365,18.365,0,0,1,6.967-7.353l3.017-1.779a.827.827,0,1,1,.84,1.424L173.5,273.09a16.689,16.689,0,0,0-6.345,6.691l-4.663,8.985a18.4,18.4,0,0,1-9.3,8.515A.816.816,0,0,1,152.875,297.35Z" transform="translate(-152.047 -269.772)" fill="#fbbf69"></path></g><g transform="translate(30.131 54.567)"><path d="M158.34,302.163a.824.824,0,0,1-.723-.423l-18.242-32.618a.823.823,0,0,1,1.438-.8l18.241,32.619a.821.821,0,0,1-.714,1.223Z" transform="translate(-139.273 -267.901)" fill="#fbbf69"></path></g><g transform="translate(20.336 61.207)"><path d="M153.687,302.14H132.226a.825.825,0,0,1-.827-.825v0a.826.826,0,0,1,.825-.827h21.463a16.672,16.672,0,0,0,14.836-9.01l4.672-8.992a18.356,18.356,0,0,1,6.967-7.353l3.016-1.779a.827.827,0,0,1,.841,1.424L181,276.555a16.7,16.7,0,0,0-6.345,6.691l-4.674,8.992A18.308,18.308,0,0,1,153.687,302.14Z" transform="translate(-131.399 -273.237)" fill="#fbbf69"></path></g><g transform="translate(20.502 63.399)"><path d="M132.194,301.544a.661.661,0,0,1-.571-.994l14.645-25.221a.661.661,0,1,1,1.143.664l-14.645,25.221A.662.662,0,0,1,132.194,301.544Z" transform="translate(-131.533 -274.999)" fill="#fbbf69"></path></g><path d="M156.341,301.016a4.354,4.354,0,1,1,4.354-4.354A4.362,4.362,0,0,1,156.341,301.016Z" transform="translate(-106.038 -207.376)" fill="#002a4a"></path><path d="M130.087,296.288a2.459,2.459,0,0,0,2.46,2.46h0a2.459,2.459,0,0,0,2.461-2.458h0a2.46,2.46,0,0,0-4.92,0Z" transform="translate(-111.383 -207.004)" fill="#72a1d6"></path><path d="M152.425,296.551a3.81,3.81,0,0,0,3.809,3.809h0a3.809,3.809,0,1,0-3.811-3.812Z" transform="translate(-105.931 -207.269)" fill="#72a1d6"></path><g transform="translate(52.785 99.374)"><path d="M158.141,306.308a.659.659,0,0,1-.1-1.311l7.275-1.075a.659.659,0,1,1,.188,1.3l-7.275,1.075A.59.59,0,0,1,158.141,306.308Z" transform="translate(-157.482 -303.916)" fill="#c5eafa"></path></g><path d="M136.784,267.295h6.449a.871.871,0,0,1,.871.871V269.2a.87.87,0,0,1-.871.871H135.09a.871.871,0,0,1-.785-1.235A2.773,2.773,0,0,1,136.784,267.295Z" transform="translate(-110.373 -213.481)" fill="#357e68"></path><path d="M159.014,296.906v7.689s-.659,1.2-1.529,1.2a6.453,6.453,0,0,1-1.713-.27l-.848-10.168Z" transform="translate(-105.321 -206.631)" fill="#f5917d"></path><path d="M158.868,302.3a8.658,8.658,0,0,1,3.309.7c2.145.658,3.373.294,3.51.817s-.075.555-.075.555l-9.7,2.115s-1.442-2.844-.3-3.207C158.124,302.475,158.868,302.3,158.868,302.3Z" transform="translate(-105.261 -204.937)" fill="#ee5b44"></path><path d="M149.675,261.213s14.237,10.853,16.111,19.728-1.431,27.722-1.431,27.722a10.575,10.575,0,0,1-5.474.442s.071-24.633-1.253-26.4-21.661-12.843-22.652-16.15,1.555-6.945,1.555-6.945Z" transform="translate(-110.246 -215.357)" fill="#ee5b44"></path><path d="M172.719,261.87a7.193,7.193,0,0,0-4.964-2.379c-.7.047-11.753-5.35-11.881-5.791-.309-1.067-3.558-3.031-1.921-7.559s.449-5.25-.36-6.732c-.692-1.265-.7-2.364-1.956-.387-2.42,3.811-3.235,15.936-2.737,16.874,1.866,3.483,18.247,7.106,18.546,7.185.4.1.9,1.213,1.3,1.317a4.7,4.7,0,0,0,2.613-.287C171.63,263.994,173.458,263.13,172.719,261.87Z" transform="translate(-106.825 -220.646)" fill="#f1766c"></path><g transform="translate(31.215 41.166)"><path d="M140.419,258.6a.3.3,0,0,1-.066-.007.272.272,0,0,1-.2-.33h0c.138-.572.249-.927.249-.942a.275.275,0,0,1,.526.157h0s-.1.357-.24.913A.271.271,0,0,1,140.419,258.6Z" transform="translate(-140.144 -257.129)" fill="#ec473a"></path></g><path d="M154.791,237.6a7.8,7.8,0,0,1,3.638,4.409c.827,2.977,1.682,9.659,0,11.464-2.647,2.84-5.671,9.046-7.527,14.382-.421,1.207-15.763.091-15.588-1.033.249-1.582,7.589-19,10.29-24.516S154.791,237.6,154.791,237.6Z" transform="translate(-110.108 -220.74)" fill="#fbbf69"></path><path d="M156.539,235.675s-2.537,4.775-1.709,7.14a17.164,17.164,0,0,1,.809,5.214c0,3.307-5.74-9.41-5.74-9.41l2.81-5.35Z" transform="translate(-106.548 -221.786)" fill="#f5917d"></path><path d="M151.777,234.164a6.572,6.572,0,0,0,2.422,3.269,5.286,5.286,0,0,0,.871.5,22.365,22.365,0,0,1,1.006-2.253l-3.829-2.414Z" transform="translate(-106.089 -221.787)" fill="#ee5b44"></path><g transform="translate(57.576 42.627)"><path d="M191.265,305.786a.828.828,0,0,1-.725-.429L168.27,264.838a2.673,2.673,0,0,1-.325-1.269v-2.628a.98.98,0,0,0-1.484-.841l-3.877,2.326a.826.826,0,0,1-1.133-.281v0a.829.829,0,0,1,.284-1.135l3.878-2.326a2.634,2.634,0,0,1,3.99,2.258v2.628a.982.982,0,0,0,.124.473l22.269,40.519a.833.833,0,0,1-.73,1.227Z" transform="translate(-161.333 -258.303)" fill="#fbbf69"></path></g><path d="M183.416,296.288a2.459,2.459,0,0,0,2.46,2.46h0a2.459,2.459,0,0,0,2.461-2.458h0a2.459,2.459,0,0,0-2.46-2.46h0a2.459,2.459,0,0,0-2.46,2.46Z" transform="translate(-98.366 -207.004)" fill="#002a4a"></path><path d="M170.273,263.795a7.192,7.192,0,0,0-5.4-1.049c-.671.224-12.721-2.208-12.958-2.605-.567-.955.2-9.543.637-14.338s-.04-5.416-1.2-6.646c-.988-1.05-5.529-1-6.244,1.228-1.38,4.3-.109,22.858.615,23.638,2.693,2.9,19.449,2.273,19.759,2.273.413,0,1.177.947,1.59.947a4.708,4.708,0,0,0,2.453-.937C169.754,266.125,171.306,264.829,170.273,263.795Z" transform="translate(-107.867 -220.511)" fill="#f5917d"></path><path d="M152.741,230.462c-1.33-1.672-5.583-8.517-9.655-5.788s-1.244,7.321-8.049,3.9c-6.3-3.169-10.009,3.72-6.843,7.615a4.44,4.44,0,0,0-1.325,1.671,4.8,4.8,0,0,0,2.547,6.279c.393.179.591.534,1,.61a8.831,8.831,0,0,0,5.994,4.283c8.074,1.974,6.533-6.512,9.082-8.335s2.707,1.341,5.972.912,4.528-2.264,4.247-9.047l-.17-1.784a1.847,1.847,0,0,1-2.611-.086A1.823,1.823,0,0,1,152.741,230.462Z" transform="translate(-112.261 -224.039)" fill="#002a4a"></path><path d="M155.054,225.842a5.421,5.421,0,0,0-3.141,1.922c-1.244,1.617-1.742,7.56,1.923,10.1s6.234-1.59,6.469-4.789S160.056,225.558,155.054,225.842Z" transform="translate(-106.28 -223.603)" fill="#f5917d"></path><path d="M150.026,231.982c-.1-3.044.5-5.239,2.8-5.972s4.3-1.493,5.892.754l.391.31s-3.757.386-4.267,2.229-2.9,3.786-2.646,4.728c.5,1.85-.175,2.42-.175,2.42l-.33-.32A5.277,5.277,0,0,1,150.026,231.982Z" transform="translate(-106.519 -223.739)" fill="#002a4a"></path><path d="M153.593,230.521c.163.863-.2,1.643-.8,1.742s-1.229-.519-1.393-1.382.2-1.642.8-1.742S153.43,229.658,153.593,230.521Z" transform="translate(-106.192 -222.797)" fill="#f5917d"></path></g></g></g></svg> 