<?xml version="1.0" encoding="UTF-8"?> <svg xmlns="http://www.w3.org/2000/svg" xmlns:xlink="http://www.w3.org/1999/xlink" width="244" height="244" viewBox="0 0 244 244"><defs><filter id="a" x="0" y="0" width="244" height="244"><feOffset dy="13"></feOffset><feGaussianBlur stdDeviation="8" result="b"></feGaussianBlur><feFlood flood-opacity="0.082"></feFlood><feComposite operator="in" in2="b"></feComposite><feComposite in="SourceGraphic"></feComposite></filter><clipPath id="c"><circle cx="73.904" cy="73.904" r="73.904" fill="none"></circle></clipPath><clipPath id="d"><path d="M250.152,752.007a10.634,10.634,0,0,1-.807,4.079c-.839,1.56-41.341,2.853-42,2.4s-1.546-4.468-.963-7.392c.569-2.909,4.151-5.175,7.015-6.676a4.847,4.847,0,0,0,.5-.3C217.233,741.945,226,732.989,226,732.989c1.063-1.815,1.257-5.009,5.365-5.311,4.124-.317,5.384,1.242,6.329,1.5s10.827,1.554,10.993,4C248.825,735.078,250.494,745.589,250.152,752.007Z" transform="translate(-206.189 -727.636)" fill="none"></path></clipPath><clipPath id="e"><path d="M177.027,754.161a10.892,10.892,0,0,1-.81,4.064c-.825,1.559-41.327,2.819-42,2.369s-1.53-4.454-.96-7.378,4.154-5.188,7.018-6.672c.135-.075.3-.165.48-.285,3.328-2.16,12.131-11.142,12.131-11.142,1.079-1.814,1.259-5.008,5.383-5.323,4.109-.3,5.383,1.26,6.328,1.514s10.826,1.56,10.991,3.989C175.722,737.2,177.387,747.743,177.027,754.161Z" transform="translate(-133.071 -729.756)" fill="none"></path></clipPath></defs><g transform="translate(23.986 11)"><g transform="matrix(1, 0, 0, 1, -23.99, -11)" filter="url(#a)"><g transform="translate(24 11)" fill="#fafafa" stroke="#e5e5e5" stroke-width="1"><circle cx="98" cy="98" r="98" stroke="none"></circle><circle cx="98" cy="98" r="97.5" fill="none"></circle></g></g><g transform="translate(24.333 24)"><g clip-path="url(#c)"><g transform="translate(-46.764 -1.927)"><rect width="172.792" height="121.538" transform="translate(28.16)" fill="#585d89"></rect><path d="M85.693,321.141s112.254-51.254,170.568-13.811-47.572,53.4-50.335,54.933S98.814,339.245,98.814,337.71,85.693,321.141,85.693,321.141Z" transform="translate(-58.685 -187.941)" fill="#2a5a43"></path><path d="M58.685,335.258S170.939,284,229.254,321.447s-47.571,53.4-50.333,54.938S71.806,353.367,71.806,351.832,58.685,335.258,58.685,335.258Z" transform="translate(-58.685 -187.941)" fill="#3c7056"></path><path d="M286.976,257.583c-3.451.061-7.6.206-11.053.271-6.516.115-13.053.23-19.549-.184a44.007,44.007,0,0,1-10.688-1.732c-2.035-.66-3.946-1.56-6.041-2.094-3.683-.942-7.658-.69-11.527-.843a106.7,106.7,0,0,1-17.588-2.656c-8.909-1.861-30.849-4.647-31.412-11.7a3.014,3.014,0,0,1,.772-2.323,5.116,5.116,0,0,1,1.876-1.1c10.339-4.124,22.667-2.692,34.231-3.413a29.37,29.37,0,0,0,8.631-1.554c3.115-1.2,5.831-3.319,9.292-3.49,2.433-.118,5.656.484,6.7-1.237a3.722,3.722,0,0,0,.321-1.378c.335-2.011,4.648-3.313,6.961-4,8.072,2.681,12.159,6.6,17.665,10.939a12.672,12.672,0,0,0-1.847.289c-2.217.531-4.075,1.765-6.285,2.31a21.735,21.735,0,0,1-5.3.4l-19.334-.119a12.133,12.133,0,0,0-3.6.337,19.306,19.306,0,0,0-3.023,1.5c-3.316,1.67-7.5,1.7-11.372,2.282-1.232.184-2.585.513-3.171,1.378-.981,1.442.875,3.091,2.746,3.811,7.512,2.887,16.762.083,24.757,2.024,2.139.518,4.124,1.362,6.2,2,6.833,2.1,14.435,1.913,21.738,1.312,4.547-.375,9.107-.9,13.663-1.1,2.137,3.078,3.973,6.1,5.592,8.928Z" transform="translate(-58.685 -187.941)" fill="#fff" opacity="0.37" style="isolation:isolate"></path><path d="M98.972,226.489c2.82-.253,5.676-.009,8.5-.218a26.174,26.174,0,0,0,8.766-2.211,11.853,11.853,0,0,1,2.328-.9,13.615,13.615,0,0,1,3.387-.054,18.869,18.869,0,0,0,6.516-.9c.7-.228,1.489-.606,1.6-1.285.148-.866-.876-1.485-1.773-1.783s-1.971-.659-2.164-1.521c-.083-.386.029-.825-.2-1.155a1.463,1.463,0,0,0-.705-.459,28.485,28.485,0,0,0-9.425-1.764c-.434-.017-.878-.013-1.326,0a106.243,106.243,0,0,1,16.41-4.965c.364,0,.728-.009,1.092-.019,4.29-.119,8.9-.506,12.566,1.553a2.19,2.19,0,0,1,1.111,1.1c.386,1.215-1.3,2.044-2.635,2.359-.205.843,1,1.32,1.923,1.472a56.927,56.927,0,0,1,8.765,2.155c2.019.67,4.26,1.745,4.659,3.681a3.813,3.813,0,0,1-1.694,3.65,9.844,9.844,0,0,1-4.155,1.55c-5.045.9-10.261.282-15.378.732a4.148,4.148,0,0,0-1.95.52c-.878.585-1.114,1.682-1.732,2.5-1.22,1.633-3.665,1.931-5.815,2.039q-7.182.361-14.374.108a12.993,12.993,0,0,0-3.6.2,19.888,19.888,0,0,0-3.436,1.5,27.063,27.063,0,0,1-7.449,1.913,15.55,15.55,0,0,1-.044-9.132C98.814,226.924,98.89,226.7,98.972,226.489Z" transform="translate(-58.685 -187.941)" fill="#fff" opacity="0.37" style="isolation:isolate"></path><path d="M138.67,259.593a5.424,5.424,0,0,0-6.5-4.07h0l-.148.037a7.982,7.982,0,0,0-9.6-4.241,9.836,9.836,0,0,0-17.667,1.722,6.75,6.75,0,0,0-10.03,5.893c0,.221.013.439.033.655Z" transform="translate(-58.685 -187.941)" fill="#fff"></path><g transform="translate(60.592 1.695)"><g transform="translate(64.098 40.443)"><path d="M183.375,233.433c1.475-.017,2.9.2,3.278.723a7.645,7.645,0,0,1,.707,1.57A18.036,18.036,0,0,0,189,238.96c2.059,2.818,5.945,3.33,9,2.489,3.834-1.055,4.158-6.353,3.882-9.7-.095-1.415-7.088-2.433-14.116-.924a22.89,22.89,0,0,1-4.39.3Zm6.1,4.144c-.292-.5-2.075-4.587-1.08-5.126,2.1-1.139,8.317-.964,10.9-.342.332.079.7.251.741.571a14.168,14.168,0,0,1-.015,4.465,5.108,5.108,0,0,1-.958,2.281,4.178,4.178,0,0,1-2.827,1.17,9.234,9.234,0,0,1-1.713-.026A6.206,6.206,0,0,1,189.474,237.577Z" transform="translate(-183.375 -230.079)" fill="#732814"></path><g transform="translate(13.83 0.116)"><path d="M197.205,230.2s5.951.463,6.194.648a1.741,1.741,0,0,1-.04,1.612c-.264.159-.8-.042-1.161.367a5.74,5.74,0,0,0-.556,1.958,31.793,31.793,0,0,0-1.175-3.4C200.276,231.245,197.205,230.2,197.205,230.2Z" transform="translate(-197.205 -230.195)" fill="#732814"></path></g></g><g transform="translate(42.504)"><path d="M220.223,217.988a11.673,11.673,0,0,0-1.527-5.471,5.015,5.015,0,0,0-.769-.915,10.764,10.764,0,0,0-3.653-9.913,16.856,16.856,0,0,0-7.307-3.144A35.239,35.239,0,0,1,202,197.2a23.026,23.026,0,0,0-8.286-6.593,13.761,13.761,0,0,0-7.861-.7c-2.556.464-4.887,1.809-7.471,2.111-3.019.352-5.841-2.038-8.847-.978-1.994.7-3.554,2.78-4.588,4.529-2.883,4.874-3.652,12.513-2.881,18.028a20.855,20.855,0,0,0,1.86,5.74c.856,1.92,1.066,4.05,2.167,5.918,1.465,2.484,4.976,6.232,8.18,5.079a.637.637,0,0,0,.15-1.146,18.989,18.989,0,0,0-2.618-1.4.832.832,0,0,0,.184-.146.565.565,0,0,0-.086-.671,37.1,37.1,0,0,0-2.777-2.588,6.025,6.025,0,0,1-.823-1.059,7.249,7.249,0,0,0,.751.3c1.964.989,4.183,1.649,6.132,2.459,4.274,1.754,9.148,2.189,13.646,3.254,5.278,1.259,10.467,2.159,15.085,5.173,1.41.9,2.879,2.564,4.559,2.969a11.845,11.845,0,0,0,3.838-.21c-.4,1.8-2.009,4.544.975,4.634-.06.12-.135.24-.2.36a33.225,33.225,0,0,0-2.024,4.678c-.21.675-.675,4.5-.765,4.544a.577.577,0,0,0,.285,1.064h.1a.6.6,0,0,0,.51-.3c1.829-3.538,2.579-7.527,4.648-11.021A12.3,12.3,0,0,0,217.6,237.7c.585-2.564.4-5.308.989-7.932C219.452,225.914,220.455,221.967,220.223,217.988Z" transform="translate(-161.781 -189.636)" fill="#3f394a"></path></g><g transform="translate(21.39 61.197)"><path d="M149.695,250.832l2.983,9.6-8.98,1.115-3.032-9.064Z" transform="translate(-140.666 -250.832)" fill="#ee8567"></path></g><g transform="translate(7.651 34.443)"><path d="M149.7,250.832s-19.29-26.339-20.4-26.736-4.413,6.207-.528,15.56,12.59,18.559,12.59,18.559Z" transform="translate(-126.927 -224.079)" fill="#ee8567"></path></g><g transform="translate(51.986 60.587)"><path d="M171.263,290.856l29.091,15.086,24.167-19.123S212.945,278.754,211.7,275.1c-.262-.757-.377-24.877-.377-24.877l-28.727,5.2s.235,7.059.34,13.252c.064,2.713.078,5.263.053,6.989a4.873,4.873,0,0,1-.121.993C181.622,282.364,171.263,290.856,171.263,290.856Z" transform="translate(-171.263 -250.223)" fill="#ee8567"></path></g><g transform="translate(48.315 17.328)"><path d="M209.746,255.392c-4,6.028-19.868,12.911-25.1,13.376-4.873.435-10.526-6.463-13.495-11.531-2.549-4.349-3.314-17.1-3.509-27.456,0-.72-.015-1.41-.03-2.1-.075-7.152.1-12.7.1-12.7s21.863-8.532,22.268-7.992,21.8,10.976,21.8,10.976S213.735,249.364,209.746,255.392Z" transform="translate(-167.592 -206.963)" fill="#ee8567"></path></g><g transform="translate(59.747 45.331)"><path d="M183.027,249.457a.751.751,0,0,1-.536-.225c-1.03-1.049-3.43-3.629-3.467-4.909-.035-1.184,2.232-7.1,2.927-8.879a.75.75,0,0,1,1.4.545,62.96,62.96,0,0,0-2.825,8.293c.052.477,1.471,2.3,3.039,3.9a.75.75,0,0,1-.535,1.275Z" transform="translate(-179.024 -234.967)" fill="#e16746"></path></g><g transform="translate(63.59 75.772)"><path d="M182.867,276.657c.972-.088,2.108-.226,3.273-.425a34.943,34.943,0,0,0,11.2-3.67c3.837-2.182,3.471-7.564,2.184-7.129-3.343,1.128-12.59,3.68-14,3.691a7.457,7.457,0,0,1-2.579-.465l-.014.016c.064,2.713.078,5.263.053,6.989A4.873,4.873,0,0,1,182.867,276.657Z" transform="translate(-182.867 -265.408)" fill="#e16746"></path></g><g transform="translate(90.568 43.844)"><path d="M211.22,233.715s3.511-1.79,4.444,4.5-5.54,9.412-5.54,9.412-.268-9.243-.279-9.618S211.22,233.715,211.22,233.715Z" transform="translate(-209.845 -233.479)" fill="#ee8567"></path></g><g transform="translate(108.834 515.627)"><path d="M246.027,705.263l-1.24,26.029-9.181,6.386-6.008-6.272-1.488-23.219Z" transform="translate(-228.111 -705.263)" fill="#ee8567"></path></g><g transform="translate(38.455 518.051)"><path d="M175.744,707.686l-2.293,26.852-9.338,5.148-5.767-6.494-.614-23.258Z" transform="translate(-157.731 -707.686)" fill="#ee8567"></path></g><g transform="translate(16.203 92.369)"><path d="M234.166,293.454c1.929,7.554-.705,21.45-21.942,25.368-14.787,2.729-42.983,7.165-58.743,9.608a14.156,14.156,0,0,1-15.423-9.021c-1.278-3.4-2.4-6.4-2.563-6.834-.392-1.056,6.96-19.359,13.124-22.1s63.039-8.9,70.2-8.442C229.125,282.692,232.238,285.9,234.166,293.454Z" transform="translate(-135.48 -282.004)" fill="#fab251"></path></g><g transform="translate(43.789 246.703)"><path d="M252.452,712.565c-1.439,3.7-9.926,5.233-16.479,5.413-6.568.195-13.556-.81-14.261-3.029-1.589-5.039-26.181-233.475-26.181-233.475l-29.286-30.14-3.179-3.269,16.75-7.393L186.8,437.6l61.4-1.259s.09,1.065.225,2.909c.195,2.474.495,6.373.824,10.916.84,11.322,1.9,26.722,2.13,34.654C251.778,498.314,255.047,705.937,252.452,712.565Z" transform="translate(-163.066 -436.339)" fill="#6c8ea1"></path></g><g transform="translate(24.921 246.703)"><path d="M199.654,513.324S184.764,709.191,182.6,713.569c-1.529,3.089-11.1,3.6-15.6,3.734s-12.446-1.29-15.28-3.239c-4.948-3.4-6.3-136.906-7.348-173.254-.764-25.927,1.02-68.018,2.1-90.031.24-5.038.45-9.027.584-11.531.105-1.874.166-2.909.166-2.909L186.8,437.6s.435,1.245,1.139,3.164c.975,2.745,2.505,6.883,4.034,10.767,1.815,4.558,3.659,8.787,4.693,10.032C199.235,464.65,199.654,513.324,199.654,513.324Z" transform="translate(-144.197 -436.339)" fill="#6c8ea1"></path></g><g transform="translate(106.622 101.84)"><path d="M234.774,293.753c-6.723,3.949-14.736,15.6-2.567,33.442s41.3,57.795,41.3,57.795,16.128-7.238,17.155-7.7,6.727-17.666,4.337-23.976-39.242-53.517-45.048-57.732S241.5,289.8,234.774,293.753Z" transform="translate(-225.899 -291.476)" fill="#fab251"></path></g><g transform="translate(57.81 300.573)"><path d="M198.186,516.621a.746.746,0,0,1-.581-.275l-20.349-24.912a.75.75,0,0,1,1.161-.949L198.766,515.4a.749.749,0,0,1-.58,1.224Z" transform="translate(-177.087 -490.209)" fill="#53707f"></path></g><g transform="translate(86.913 538)"><g clip-path="url(#d)"><path d="M250.152,752.007a10.634,10.634,0,0,1-.807,4.079c-.839,1.56-41.341,2.853-42,2.4s-1.546-4.468-.963-7.392c.569-2.909,4.151-5.175,7.015-6.676a4.847,4.847,0,0,0,.5-.3C217.233,741.945,226,732.989,226,732.989c1.063-1.815,1.257-5.009,5.365-5.311,4.124-.317,5.384,1.242,6.329,1.5s10.827,1.554,10.993,4C248.825,735.078,250.494,745.589,250.152,752.007Z" transform="translate(-206.189 -727.636)" fill="#c53838"></path><g transform="translate(14.916 5.072)"><path d="M233.761,739.482a.741.741,0,0,1-.375-.1,64.952,64.952,0,0,0-7.184-3.607c-2.725-1.022-4.552-1.595-4.57-1.6a.75.75,0,0,1,.447-1.431c.018.005,1.881.589,4.65,1.627a65.1,65.1,0,0,1,7.409,3.713.75.75,0,0,1-.377,1.4Z" transform="translate(-221.106 -732.708)" fill="#f2e3dd"></path></g><g transform="translate(9.444 9.858)"><path d="M228.29,744.269a.739.739,0,0,1-.375-.1,65.093,65.093,0,0,0-7.185-3.607c-2.725-1.022-4.552-1.594-4.57-1.6a.749.749,0,0,1,.446-1.431c.018,0,1.882.589,4.65,1.627a65.118,65.118,0,0,1,7.41,3.714.749.749,0,0,1-.376,1.4Z" transform="translate(-215.633 -737.494)" fill="#f2e3dd"></path></g><g transform="translate(0 16.485)"><path d="M250.152,752.007a10.634,10.634,0,0,1-.807,4.079c-.839,1.56-41.341,2.853-42,2.4s-1.546-4.468-.963-7.392c.569-2.909,4.151-5.175,7.015-6.676a4.847,4.847,0,0,0,.5-.3c1.6.764,4.229,2.187,5.489,3.761,1.876,2.339,2.432,5.2,3.377,5.592C223.507,753.8,242.58,752.52,250.152,752.007Z" transform="translate(-206.189 -744.121)" fill="#f2e3dd"></path></g></g></g><g transform="translate(13.795 540.12)"><g clip-path="url(#e)"><path d="M177.027,754.161a10.892,10.892,0,0,1-.81,4.064c-.825,1.559-41.327,2.819-42,2.369s-1.53-4.454-.96-7.378,4.154-5.188,7.018-6.672c.135-.075.3-.165.48-.285,3.328-2.16,12.131-11.142,12.131-11.142,1.079-1.814,1.259-5.008,5.383-5.323,4.109-.3,5.383,1.26,6.328,1.514s10.826,1.56,10.991,3.989C175.722,737.2,177.387,747.743,177.027,754.161Z" transform="translate(-133.071 -729.756)" fill="#c53838"></path><g transform="translate(13.873 5.102)"><path d="M159.6,741.639a.742.742,0,0,1-.375-.1,64.781,64.781,0,0,0-7.182-3.61c-2.726-1.025-4.552-1.6-4.571-1.6a.75.75,0,0,1,.448-1.431c.019.006,1.881.59,4.65,1.63a65.436,65.436,0,0,1,7.407,3.717.75.75,0,0,1-.377,1.4Z" transform="translate(-146.945 -734.858)" fill="#f2e3dd"></path></g><g transform="translate(8.399 9.886)"><path d="M154.124,746.423a.746.746,0,0,1-.376-.1,65.1,65.1,0,0,0-7.182-3.611c-2.726-1.024-4.552-1.6-4.57-1.6a.75.75,0,0,1,.448-1.431c.018.006,1.881.59,4.649,1.63a64.876,64.876,0,0,1,7.408,3.717.75.75,0,0,1-.377,1.4Z" transform="translate(-141.47 -739.642)" fill="#f2e3dd"></path></g><g transform="translate(0 16.503)"><path d="M177.027,754.161a10.892,10.892,0,0,1-.81,4.064c-.825,1.559-41.327,2.819-42,2.369s-1.53-4.454-.96-7.378,4.154-5.188,7.018-6.672c.135-.075.3-.165.48-.285a14.559,14.559,0,0,1,5.413,3.389c2.729,2.909,4.228,5.533,4.978,5.623C151.76,755.361,170.384,754.476,177.027,754.161Z" transform="translate(-133.071 -746.259)" fill="#f2e3dd"></path></g></g></g><g transform="translate(0 63.36)"><path d="M160.588,305.22s4.427-7.955.934-21.12-4.569-22.188-6.893-25.13-18.657-6.282-21.9-5.951S115.1,295,120.46,312.076c6.087,19.4,30.249,16.5,30.249,16.5s1.913-10.056,3.089-10.986S160.588,305.22,160.588,305.22Z" transform="translate(-119.277 -252.996)" fill="#fab251"></path></g><g transform="translate(24.674 90.498)"><path d="M147.276,436.353a15.8,15.8,0,0,0,1.233,1.47c4.263,4.508,10.981,7.045,16.769,8.933,10.141,3.309,21.048,3.87,31.626,3.149,40.3-2.75,51.508-12.358,53.049-13.566,5.146-4.032,1.516-32.625-.25-56.912-.235-3.24,3.256-80.572.872-83.327-7.37-8.518-26.672-16.845-31.112-15.891s-8.387,6.123-22.258,6.873c-9.608.52-15.805-2.233-19.926-2.5-6.559-.424-20.608,6.893-29.821,14.308-6.166,4.963-.783,72.288-.471,83.036.227,7.882-.9,16.478-1.795,24.306a158.409,158.409,0,0,0-1.241,17.106C143.924,428.072,144.451,432.527,147.276,436.353Z" transform="translate(-143.95 -280.134)" fill="#fab251"></path></g><g transform="translate(114.954 226.71)"><path d="M258.226,416.346s-16.773.115-21.2,6.435-4.64,17.247,7.154,14.578a45.646,45.646,0,0,0,19.857-10.6Z" transform="translate(-234.23 -416.346)" fill="#ee8567"></path></g><g transform="translate(135.171 147.699)"><path d="M254.448,358.652s13.937,17.9,9.588,26.9c-8.784,18.174-8,20.1-8.022,25.492s2.982,21.144,13.121,18.369c17.806-4.873,33.434-53.982,31.935-62.98s-16.881-29.1-16.881-29.1L274.383,355Z" transform="translate(-254.448 -337.335)" fill="#fab251"></path></g><g transform="translate(58.508 91.441)"><path d="M177.785,284.631s11.875,37,15.437,38.221,23.848-41.775,23.848-41.775-11.009,4.1-21.505,4.287A137.381,137.381,0,0,1,177.785,284.631Z" transform="translate(-177.785 -281.077)" fill="#fff"></path></g><g transform="translate(110.12 257.957)"><path d="M247.579,466.524a.729.729,0,0,1-.225-.035A27.347,27.347,0,0,1,237.3,460.4a45.511,45.511,0,0,1-7.835-11.747.75.75,0,1,1,1.369-.613,44.862,44.862,0,0,0,7.534,11.308,26.237,26.237,0,0,0,9.439,5.716.749.749,0,0,1-.226,1.464Z" transform="translate(-229.397 -447.593)" fill="#53707f"></path></g><g transform="translate(28.959 257.956)"><path d="M148.985,462.775a.75.75,0,0,1-.61-1.184l9.747-13.684a.75.75,0,0,1,1.221.87L149.6,462.46A.749.749,0,0,1,148.985,462.775Z" transform="translate(-148.236 -447.592)" fill="#53707f"></path></g><g transform="translate(72.257 35.962)"><path d="M200.939,230.733a1.749,1.749,0,0,0-.17-.718,6,6,0,0,0-2.276-2.5c-1.593-1.036-5.351-2.915-6.729-1.264s3.783,2.9,4.664,3.377c.9.494,1.664,1.218,2.592,1.682C199.968,231.781,200.924,231.571,200.939,230.733Z" transform="translate(-191.533 -225.597)" fill="#3f394a"></path></g><g transform="translate(49.635 36.128)"><path d="M173.027,229.929c-.873.532-1.6,1.29-2.5,1.8a2.394,2.394,0,0,1-.635.242c-.328-.641-.656-1.248-.984-1.855a6.26,6.26,0,0,1,1.969-2.206c1.538-1.109,5.206-3.158,6.664-1.563C178.989,227.917,173.894,229.417,173.027,229.929Z" transform="translate(-168.912 -225.763)" fill="#3f394a"></path></g><g transform="translate(48.11 15.34)"><path d="M214.059,227.7a3.76,3.76,0,0,0-.634.8q.1-1.717.127-3.417a1.071,1.071,0,0,0,.026-.118c.085-3.238-.169-8.3-3.822-9.219a1.164,1.164,0,0,0-1.2.428c-.24-.451-.486-.9-.768-1.342a1.091,1.091,0,0,0-.23-.247,2.261,2.261,0,0,0-.121-.2.294.294,0,0,0-.347-.042,1.174,1.174,0,0,0-.426-.009c-.27-.176-.543-.348-.82-.511a1.234,1.234,0,0,0-.441-.538c-.571-.383-1.143-.735-1.716-1.083a1.079,1.079,0,0,0-.553-.828,10.074,10.074,0,0,0-2.545-.889q-1.269-.636-2.6-1.2a1.262,1.262,0,0,0-1.071-1.705c-.585-.023-1.168-.075-1.749-.139a1.03,1.03,0,0,0-.845-.372c-.14,0-.286.006-.429.01a1.08,1.08,0,0,0-.566-1.633c-.179-.041-.366-.06-.552-.084a1.1,1.1,0,0,0-.3-.173c-2.546-.813-4.705.9-6.81,2.223a30.021,30.021,0,0,0-5.786,1.925,10.521,10.521,0,0,0-3.166.975.932.932,0,0,0-.5.875q-1.41.311-2.818.634a24.291,24.291,0,0,0-5.269,1.117,1.063,1.063,0,0,0,.565,2.048c1.964-.367,3.959-.869,5.962-1.341a45.772,45.772,0,0,1,9.968-.785,53.871,53.871,0,0,1,10.2.46,45.974,45.974,0,0,1,9.9,3.311c3.83,1.706,2.129,8.445,2.484,11.6.23,2.048,1.381,2.551,2.341,4.158.582.974,1.862,1.884,3.072,1.277,1.468-.737,2.189-3.922,2.393-5.41A.579.579,0,0,0,214.059,227.7Z" transform="translate(-167.386 -204.975)" fill="#3f394a"></path></g><g transform="translate(34.403 4.304)"><g transform="translate(14.157 0.064)"><path d="M167.836,194.069c.16-.055.113-.115,0,0Z" transform="translate(-167.836 -194.003)" fill="#3f394a"></path></g><path d="M166.9,194.088a1.023,1.023,0,0,0-.942-.066c-.038.014-.078.032-.117.046-.516.032-1.043.106-1.505.175a14.35,14.35,0,0,0-4.18,1.31c-2.625,1.277-5.243,3.554-6.091,6.434-.82,2.784-.188,6.234.664,8.949.466,1.485,1.592,2.624,1.977,4.127a21.178,21.178,0,0,1,.183,6.551c-.484,6.062,5.787,7.408,10.1,5.04,3.907-.187,4.731-5.454,6.72-8.337,2.033-2.946,5.873-3.5,8.743-5.465,2.043-1.4,3.025-3.324,4.312-5.372C187.469,206.414,167.423,194.154,166.9,194.088Z" transform="translate(-153.679 -193.94)" fill="#3f394a"></path></g><g transform="translate(27.1 110.067)"><path d="M147.237,365.908a.75.75,0,0,1-.75-.74c0-.182-.248-18.366,0-29.823s1.736-34.707,1.751-34.941a.74.74,0,0,1,.8-.7.75.75,0,0,1,.7.8c-.015.233-1.5,23.449-1.747,34.876s0,29.589,0,29.771a.75.75,0,0,1-.74.76Z" transform="translate(-146.376 -299.703)" fill="#dd9534"></path></g><g transform="translate(42.476 98.534)"><path d="M164.679,312.818a.751.751,0,0,1-.086-.794,24.2,24.2,0,0,0,2.152-9.544c-.053-4.948-4.839-13.1-4.888-13.177a.75.75,0,0,1,1.291-.764c.206.348,5.039,8.574,5.1,13.925a25.283,25.283,0,0,1-2.3,10.218.749.749,0,0,1-1.261.136Z" transform="translate(-161.753 -288.17)" fill="#dd9534"></path></g><g transform="translate(34.199 106.027)"><path d="M153.637,313.656a.748.748,0,0,1,.1-1.034,28.973,28.973,0,0,0,6.179-7.738,20.526,20.526,0,0,0,2.1-8.462.75.75,0,0,1,1.5-.021,21.686,21.686,0,0,1-2.265,9.156,29.954,29.954,0,0,1-6.547,8.206.748.748,0,0,1-1.056-.085Z" transform="translate(-153.476 -295.663)" fill="#dd9534"></path></g><g transform="translate(126.24 105.381)"><path d="M249.133,351.061a.749.749,0,0,1-.748-.71l-2.867-54.545a.751.751,0,0,1,.709-.788.741.741,0,0,1,.789.709l2.867,54.545a.751.751,0,0,1-.71.789Z" transform="translate(-245.517 -295.017)" fill="#dd9534"></path></g><g transform="translate(146.094 182.05)"><path d="M266.12,379.45a.749.749,0,0,1-.55-1.259,21.55,21.55,0,0,1,12.147-6.107,44.044,44.044,0,0,1,12.153.006.75.75,0,1,1-.264,1.476,43.489,43.489,0,0,0-11.7.006,20.319,20.319,0,0,0-11.231,5.638A.745.745,0,0,1,266.12,379.45Z" transform="translate(-265.371 -371.686)" fill="#dd9534"></path></g></g><g transform="translate(43.641 76.777)"><g transform="translate(19.25 52.984)"><path d="M124.482,323.515h99.37a2.906,2.906,0,0,0,2.907-2.906h0a2.907,2.907,0,0,0-2.907-2.907h-99.37a2.907,2.907,0,0,0-2.906,2.907h0A2.906,2.906,0,0,0,124.482,323.515Z" transform="translate(-121.576 -317.702)" fill="#ddcfc9"></path></g><path d="M121.576,320.609s-20.214-52.513-19.214-53.832,81.973-2.929,83.972-1.5,13.746,53.7,13.746,53.7Z" transform="translate(-102.326 -264.718)" fill="#ddcfc9"></path><g transform="translate(43.373 18.35)"><path d="M154.212,287.325a4.257,4.257,0,1,1-4.256-4.257A4.256,4.256,0,0,1,154.212,287.325Z" transform="translate(-145.699 -283.068)" fill="#fff"></path></g></g><g transform="translate(70.995 18.211)"><g transform="translate(0 10.528)"><g transform="translate(1.739)"><path d="M147.488,216.68a22.939,22.939,0,0,1-4.014,1.8c-6.91,1.983-12.6,6.177-12.014,7.47,1.334,3.081,4.117,7.6,7.995,6.724,3.093-.7,6.279-2.983,6.767-6.44a18.079,18.079,0,0,0-.077-3.625,7.7,7.7,0,0,1-.116-1.719c.087-.644,1.241-1.5,2.55-2.183Zm-5.374,13.578a9.244,9.244,0,0,1-1.5.831,4.181,4.181,0,0,1-3.044.3,5.1,5.1,0,0,1-1.919-1.559,14.183,14.183,0,0,1-2.118-3.932c-.116-.3.129-.626.384-.853,1.983-1.765,7.381-4.849,9.772-4.836,1.131.006,1.485,4.452,1.464,5.03A6.209,6.209,0,0,1,142.114,230.258Z" transform="translate(-131.419 -216.68)" fill="#492423"></path></g><g transform="translate(0 5.694)"><path d="M134.857,222.374s-5.03,3.213-5.158,3.491c-.137.3.488,1.387.795,1.4s.687-.415,1.2-.224,1.412,1.465,1.412,1.465a31.675,31.675,0,0,1-.565-3.55C132.643,224.748,134.857,222.374,134.857,222.374Z" transform="translate(-129.68 -222.374)" fill="#492423"></path></g></g><g transform="translate(16.022 1.71)"><g transform="translate(0 1.214)"><path d="M146.793,219.67c1.289-.717,2.641-1.207,3.227-.925a7.739,7.739,0,0,1,1.369,1.045,18,18,0,0,0,2.983,2.062c3.152,1.5,6.813.1,9.1-2.1,2.871-2.753.634-7.567-1.2-10.378-.756-1.2-7.391,1.234-12.854,5.906a23.023,23.023,0,0,1-3.716,2.356Zm7.336.742c-.494-.3-4.008-3.047-3.39-3.994,1.308-2,6.856-4.807,9.422-5.488.33-.088.736-.113.924.149a14.192,14.192,0,0,1,2.112,3.935,5.1,5.1,0,0,1,.242,2.461,4.175,4.175,0,0,1-1.928,2.375,9.153,9.153,0,0,1-1.519.792A6.209,6.209,0,0,1,154.129,220.412Z" transform="translate(-145.702 -209.076)" fill="#492423"></path></g><g transform="translate(11.713)"><path d="M157.415,210.24s5.454-2.425,5.756-2.378c.326.05.888,1.172.732,1.437s-.725.344-.847.875a5.754,5.754,0,0,0,.444,1.986,31.824,31.824,0,0,0-2.651-2.428C160.616,209.7,157.415,210.24,157.415,210.24Z" transform="translate(-157.415 -207.861)" fill="#492423"></path></g></g><g transform="translate(32.974)"><path d="M163.177,208.284l5.893-2.133,1.574.584-7.99,4.324Z" transform="translate(-162.654 -206.152)" fill="#492423"></path></g></g><path d="M107.309,321.821l140.651,1.116,1.213,28.124L93.914,340.425Z" transform="translate(-58.685 -187.941)" fill="#7c2c20"></path></g></g></g></g></svg> 